<svg xmlns="http://www.w3.org/2000/svg" width="1450" height="720" viewBox="0 0 1450 720" fill="none"><path d="M1507.04 694.134C1492.7 688.402 1475.83 693.233 1460.23 692.86C1436.68 692.289 1412.58 690.993 1389.38 694.354H1389.66C1347.99 692.091 1306.38 690.993 1265.61 696.33L1265.96 696.352C1259.22 695.122 1253.59 696.001 1248.32 697.538L1248.74 697.56C1244.67 697.252 1240.66 696.945 1236.58 696.659C1223.79 694.288 1211.28 696.462 1198.7 696.989C1190.27 697.626 1188.51 699.888 1184.57 702.479C1174.17 709.375 1153.93 708.914 1147.04 701.601C1143.6 697.867 1137.62 698.131 1134.53 699.317C1105.85 710.342 1068.32 703.687 1035.43 705.73C1017.58 706.85 996.983 707.443 977.584 704.807C964.371 703.006 958.397 705.795 962.473 710.847C964.722 713.68 976.249 715.766 968.096 719.587C951.017 719.214 956.358 713.021 949.26 710.122C939.349 706.125 929.58 705.927 922.27 711.132C916.999 714.888 915.945 711.857 913.696 711.132C908.213 709.375 904.769 705.488 895.703 707.179C885.16 709.134 889.518 712.779 892.68 715.942C894.016 717.303 894.789 718.665 891.275 719.807C848.26 720.378 848.26 720.378 824.785 709.507C805.668 722.332 767.363 721.981 722.943 708.036C712.611 712.538 701.576 717.852 682.95 712.516C655.82 719.06 625.739 715.832 596.922 715.656C563.607 715.481 530.292 714.053 497.047 713.043C493.322 712.933 489.597 712.142 486.294 711.418C463.873 706.564 463.873 706.498 439.484 709.551C428.098 710.978 419.312 709.792 412.002 706.498C397.805 700.107 380.445 696.967 357.18 698.636C351.206 699.053 344.248 698.241 338.133 697.538C325.412 696.088 313.744 691.872 299.406 696.681C297.227 697.406 289.145 696.506 284.927 695.627C258.149 690.115 228.208 691.323 199.461 690.027C176.408 692.882 153.354 695.759 130.301 698.636C128.473 698.043 126.787 697.428 125.03 696.813C121.304 693.848 118.423 690.686 113.432 688.029C110.691 686.513 103.803 686.338 99.1647 687.326C91.2928 688.995 95.4396 691.279 98.3916 693.343C73.7216 697.296 50.1059 693.717 26.2794 691.938C22.3434 684.119 6.59961 681.352 -12.307 681.001C-40.7724 680.452 -69.1674 680.1 -97.4922 678.519C-115.204 677.531 -132.635 675.906 -151.12 678.739C-163.419 680.628 -176.773 678.937 -186.473 675.005C-189.284 673.512 -192.096 671.997 -194.907 670.503C-189.776 669.076 -184.575 667.692 -179.515 666.199C-173.4 664.42 -166.723 662.487 -171.362 659.215C-175.298 656.404 -183.38 655.965 -191.252 655.591C-196.875 655.306 -200.811 656.272 -205.028 657.502C-217.047 660.994 -235.04 660.028 -239.819 656.975C-256.476 646.346 -277.492 650.035 -299.42 652.671C-302.864 651.353 -306.308 650.057 -309.752 648.739C-315.797 645.731 -321.841 642.7 -327.886 639.691C-325.145 633.806 -339.553 630.797 -344.825 626.251C-334.914 623.44 -324.934 620.629 -315.024 617.84C-311.65 618.63 -310.244 618.52 -311.439 617.62C-311.58 617.488 -313.759 617.708 -315.024 617.774C-326.832 613.14 -308.768 610.043 -310.455 605.914C-300.967 602.488 -285.012 605.431 -274.891 601.742C-282.833 596.142 -297.031 596.998 -308.558 595.549C-317.624 594.429 -320.155 590.849 -310.455 589.443C-294.009 587.071 -280.936 583.887 -272.291 578.177C-268.987 575.959 -262.17 575.542 -255.141 576.31C-248.956 576.991 -242.63 577.848 -236.305 577.957C-221.053 578.199 -195.821 582.13 -193.08 578.506C-189.003 573.236 -186.965 565.857 -194.977 559.642C-197.718 557.577 -198.843 555.227 -200.178 553.646C-128.277 543.522 -54.8293 543.807 19.2509 547.101C24.0302 549.32 28.7393 551.538 33.5187 553.778C46.8025 557.863 60.4378 553.58 74.0731 553.822C119.618 554.59 164.178 550.396 209.231 548.463C215.837 551.011 230.035 547.211 233.339 551.911C238.821 559.466 239.734 559.905 255.408 556.633C260.96 555.491 265.81 553.844 271.081 552.482C286.193 548.507 299.406 542.094 321.897 547.431C323.373 547.782 329.558 546.53 331.175 545.52C334.127 543.632 330.613 542.226 326.255 540.886C306.716 534.913 284.154 532.212 258.922 531.245C239.524 530.499 220.617 528.61 214.924 539.81C198.758 524.833 193.838 524.305 160.523 532.98C148.926 536.011 138.032 539.349 122.921 539.722C118.282 537.351 113.573 534.979 108.934 532.607C109.989 529.62 105.842 528.105 98.4619 529.181C88.4112 530.652 81.945 533.31 87.8489 537.702C83.9832 538.822 80.0472 539.942 76.1816 541.04C65.3577 538.097 54.5339 535.154 44.6237 532.453C37.1735 534.518 30.3559 536.384 23.6085 538.273C-11.323 534.1 -46.1843 529.95 -81.1158 525.777C-101.99 532.124 -120.686 525.645 -139.523 524.02C-162.084 522.065 -184.505 520.111 -207.488 518.925C-218.452 518.376 -232.65 517.212 -219.436 511.041C-218.171 510.448 -220.491 508.295 -222.74 507.373C-225.832 506.143 -228.573 507.11 -231.596 508.186C-246.847 513.72 -260.202 514.181 -267.019 507.681C-276.648 498.501 -296.398 496.788 -317.132 494.613C-351.572 490.99 -384.817 484.357 -422.63 488.838C-468.807 483.303 -522.294 483.742 -554.976 467.03C-560.739 464.087 -569.876 461.122 -579.084 460.134C-617.389 455.983 -623.855 446.013 -619.287 433.582C-612.118 431.232 -611.766 428.641 -617.038 425.83V425.742C-611.134 422.799 -592.016 421.635 -602.067 416.628C-610.431 412.521 -624.628 408.612 -640.442 414.146C-642.27 414.761 -644.589 415.201 -646.628 415.728C-652.953 412.653 -659.209 409.6 -665.534 406.548C-663.636 403.21 -669.681 401.628 -675.585 399.586C-695.475 392.69 -724.644 391.68 -744.323 384.345C-780.169 370.926 -818.333 358.386 -859.45 347.032C-870.977 343.848 -880.325 341.52 -893.96 344.528C-896.841 343.035 -899.723 341.542 -902.605 340.048C-894.874 336.974 -897.333 334.119 -903.519 331.154C-911.39 327.42 -918.7 323.687 -922.777 318.965C-932.406 307.765 -931.281 305.349 -907.033 298.19C-901.972 296.696 -896.701 295.291 -891.5 293.885C-881.66 291.206 -873.156 288.197 -877.583 283.212C-882.574 277.524 -873.226 269.156 -899.372 267.312C-907.876 261.887 -897.263 259.252 -886.931 257.209C-842.371 248.359 -810.602 233.711 -769.696 223.235C-760.559 220.885 -764.355 217.788 -770.68 216.141C-795.28 209.663 -806.315 200.549 -811.656 190.205C-813.413 186.713 -821.426 186.054 -828.103 184.824C-845.534 181.618 -862.261 177.906 -879.341 174.568C-902.113 170.132 -905.205 161.918 -915.537 155.044C-918.419 153.156 -916.802 151.223 -913.288 149.774C-894.452 142.065 -907.173 136.267 -920.457 129.876C-941.894 119.62 -937.396 96.6486 -910.406 88.3691C-889.04 81.8026 -888.899 71.7443 -872.734 64.2115C-856.779 56.7446 -848.978 47.367 -815.03 51.0785C-812.289 51.364 -807.791 48.7286 -803.363 48.0039C-779.888 44.1826 -760.419 37.66 -731.18 37.6381C-706.299 37.6381 -702.926 34.256 -708.197 24.3953C-709.111 22.5944 -713.258 19.8492 -707.354 19.5198C-680.927 18.0044 -660.684 7.41899 -629.337 12.7996C-617.248 14.8639 -604.597 15.2593 -595.952 9.5932C-590.47 6.03543 -577.256 6.82605 -568.049 5.13501C-551.11 2.01647 -537.545 15.413 -516.46 5.94757C-504.301 0.501112 -483.567 2.87294 -466.206 5.79382C-460.021 6.84798 -454.117 4.60789 -448.846 3.24628C-440.763 1.15993 -430.994 -0.0259864 -423.262 2.17017C-407.027 6.76012 -392.899 6.34284 -377.718 1.66504C-374.133 0.545001 -366.894 -0.399308 -363.169 0.171692C-334.914 4.54204 -304.551 -2.55157 -277.211 2.14819C-260.694 4.98123 -243.895 -1.91469 -228.644 3.2243C-186.262 0.808537 -144.864 10.296 -102.834 4.98126C-82.7324 2.43373 -68.324 5.02517 -52.3693 8.3194C-43.5134 10.1422 -31.8462 14.0953 -27.6291 6.32092C-27.348 5.79385 -19.6166 5.04713 -17.2269 5.55225C3.64766 10.0104 25.8577 6.97976 47.3648 7.39703C53.831 7.50684 63.3195 6.56251 66.3417 7.79236C88.0597 16.6209 117.228 13.9855 144.006 15.7643C173.175 17.697 199.321 21.0132 231.23 17.5872C247.817 15.8083 273.049 18.6194 294.135 20.2885C335.603 23.5607 377.493 24.9003 420.015 23.2313C430.136 22.814 440.749 23.8462 451.081 24.3513C466.684 25.12 482.147 26.2181 495.571 21.7159C500.561 20.0249 506.887 19.5198 513.423 20.9692C517.43 21.8477 523.404 23.4948 522.35 19.9371C519.117 8.89043 536.828 12.3823 551.518 14.3369C560.022 15.4569 568.878 16.8405 575.696 18.9268C585.817 21.9795 591.369 21.6501 600.998 18.1362C613.017 13.7439 662.287 12.7776 677.539 15.7205C698.554 19.8053 725.473 18.1143 743.887 25.12C748.245 26.7671 754.992 24.2854 759.842 22.5065C785.145 13.107 785.918 12.7337 813.891 17.9605C838.983 22.6164 862.177 26.8988 887.62 18.3119C891.907 16.8624 901.255 18.0484 905.753 19.6516C926.558 26.9428 954.039 25.3835 978.779 27.0306C1005.28 28.7876 1034.02 27.0746 1056.37 34.4976C1121.88 35.0686 1141.7 54.6143 1169.95 70.6901C1179.09 75.873 1175.72 81.7149 1177.69 87.2711C1178.67 89.9065 1168.41 93.4862 1184.57 94.6941C1191.11 95.1772 1188.3 97.7687 1184.43 99.2181C1178.95 101.261 1173.96 103.325 1171.85 106.246C1167.21 112.856 1172.06 116.194 1191.11 116.37C1208.12 116.502 1221.26 118.874 1233.56 122.519C1237.43 123.661 1243.75 125.638 1242.98 126.648C1233.98 138.573 1255.14 150.037 1245.65 162.204C1238.9 170.835 1237.01 172.877 1212.41 171.889C1183.87 170.747 1155.48 169.034 1127.08 167.562C1110.42 166.706 1093.84 165.915 1078.44 169.034C1078.44 174.129 1089.62 174.305 1096.93 175.798C1101.36 176.72 1106.77 177.028 1111.76 177.555C1126.03 179.048 1108.03 186.713 1126.03 187.416C1137.62 187.855 1141.98 182.343 1157.16 183.682C1222.67 189.502 1290.35 190.556 1356.91 194.685C1429.8 199.187 1504.3 200.373 1578.1 202.942C1635.1 204.919 1691.75 208.147 1749.17 208.279C1821.35 208.433 1893.82 207.269 1965.58 209.223C2018.57 210.651 2071.64 203.799 2123.93 210.234C2148.67 205.139 2174.46 208.96 2199.84 208.587C2223.73 208.257 2246.65 211.266 2269.14 210.673C2331.27 209.048 2370.91 222.444 2409.92 236.368C2421.16 240.343 2430.51 244.779 2445.41 247.129C2463.26 249.962 2471.98 256.089 2482.1 261.492C2494.33 268.014 2497.56 276.755 2519.35 280.95C2521.74 281.411 2523.99 283.695 2522.94 284.639C2514.22 292.216 2530.25 298.19 2532.43 305.042C2535.45 314.419 2541.77 322.633 2509.09 328.826C2488.43 332.757 2476.34 342.662 2460.24 349.909C2465.87 351.666 2472.75 350.787 2478.94 350.875C2501.64 351.183 2505.3 357.815 2499.11 364.316C2497.49 366.051 2493.63 367.5 2490.75 369.059C2480.77 374.396 2477.95 378.393 2496.51 383.115C2516.96 388.298 2514.57 391.021 2490.04 393.393C2462.98 395.984 2450.05 406.13 2423.55 409.007C2417.44 409.666 2417.09 412.982 2420.81 415.288C2432.97 422.821 2416.74 423.348 2404.01 423.59C2385.95 423.919 2367.68 423.502 2349.61 423.041C2329.09 422.536 2308.57 421.504 2288.89 424.512C2279.89 425.874 2271.04 426.686 2263.16 424.249C2244.61 418.495 2247.56 426.643 2239.55 429.168C2226.55 427.521 2232.17 420.208 2217.69 418.956C2211.15 420.603 2213.54 425.632 2202.23 425.566C2162.73 425.369 2123.79 431.847 2083.31 425.588C2067.35 423.107 2049.29 427.631 2032.35 428.18C2031.58 434.307 2043.73 435.032 2052.59 436.525C2072.27 439.885 2081.13 445.464 2084.71 453.106C2091.74 468.347 2108.33 480.975 2147.33 489.936C2178.89 497.183 2204.41 507.417 2201.1 523.449C2199.84 529.906 2211.15 536.867 2208.13 543.039C2200.19 559.158 2195.76 576.64 2174.61 590.497C2144.38 610.351 2108.4 629.743 2057.23 644.149C2050.27 646.126 2045.14 649.135 2040.57 651.99C2035.86 654.911 2029.68 655.723 2021.17 655.482C2000.65 654.889 1979.14 653.966 1985.47 665.76C1968.6 665.452 1968.46 672.809 1954.54 674.5C1942.31 676.016 1931.77 675.818 1920.46 674.456C1915.61 673.863 1910.9 673.095 1906.82 672.502C1896 674.171 1899.37 678.278 1893.04 680.847C1880.88 685.767 1869.92 689.215 1851.08 685.767C1833.51 682.538 1816.64 680.825 1805.12 689.236C1802.73 691.037 1795.98 690.971 1790.85 690.708C1772.93 689.786 1758.94 690.378 1761.82 699.075C1762.46 701.118 1758.8 702.853 1752.69 702.831C1713.04 702.809 1680.15 712.669 1639.74 712.494C1618.09 712.406 1595.6 711.505 1573.81 714.053C1566.64 714.91 1555.54 714.075 1556.94 710.32C1560.32 701.469 1539.3 704.104 1529.6 701.513C1519.76 703.731 1525.88 706.696 1525.6 709.243C1525.31 711.857 1523.77 714.009 1514.7 713.746C1509.5 713.592 1500.85 713.087 1501.77 711.659C1506.69 704.061 1484.55 704.456 1477.87 700.173C1483.14 695.408 1498.96 697.165 1507.04 694.178C1511.4 694.595 1517.02 696.11 1517.16 692.706C1513.79 693.168 1510.41 693.651 1507.04 694.134" fill="#EAE7E0"></path><path fill-rule="evenodd" clip-rule="evenodd" d="M-272.262 207.099C-273.263 208.745 -274.281 210.418 -275.187 212.107C-276.76 214.867 -278.454 217.547 -280.134 220.013C-280.782 220.939 -281.393 221.853 -281.983 222.735C-282.956 224.191 -283.87 225.559 -284.8 226.747C-287.707 230.613 -290.16 232.973 -291.187 232.493C-292.52 231.853 -292.52 229.147 -291.24 224.773C-290.6 222.587 -289.667 219.973 -288.374 217.027C-286.987 214.133 -285.267 210.893 -283.254 207.36C-282 205.08 -280.774 203.187 -279.614 201.453C-279.321 201.015 -279.035 200.586 -278.754 200.165C-277.933 198.934 -277.155 197.769 -276.4 196.627C-276.067 196.151 -275.743 195.675 -275.418 195.199C-274.715 194.168 -274.011 193.137 -273.227 192.107C-272.166 190.725 -271.036 189.263 -269.795 187.657L-269.494 187.267C-268.491 185.917 -267.589 184.614 -266.726 183.367C-265.73 181.928 -264.786 180.565 -263.8 179.293C-263.234 178.422 -262.686 177.563 -262.143 176.712C-259.593 172.717 -257.156 168.896 -253.44 164.84C-251.965 163.21 -250.788 161.654 -249.654 160.156C-249.129 159.461 -248.612 158.778 -248.08 158.107C-246.374 156 -244.627 153.88 -242.254 151.52C-239.771 148.943 -237.173 146.975 -234.629 145.048C-233.934 144.522 -233.243 143.998 -232.56 143.467C-232.058 143.031 -231.558 142.579 -231.05 142.12C-230.018 141.189 -228.953 140.227 -227.774 139.307C-223.274 135.575 -221.362 133.835 -219.755 132.371C-219.381 132.031 -219.023 131.705 -218.654 131.373C-216.627 129.72 -214.267 127.84 -207.134 122.92C-203.547 120.24 -199.774 117.44 -195.907 115.04C-191.987 112.733 -188.12 110.627 -184.534 109.067L-184.507 108.973C-179.155 105.65 -177.278 104.199 -175.855 103.098C-173.714 101.442 -172.597 100.578 -162.227 95.3333C-143.854 83.0933 -121.84 77.4266 -100.52 74.6666C-85.9469 71.4266 -76.1335 70.9066 -70.1602 71.16C-65.9869 70.7333 -62.2002 70.4532 -58.3469 70.3866C-57.8999 70.3881 -57.452 70.39 -57.0026 70.3919C-53.5634 70.4065 -50.0275 70.4214 -46.0535 70.28C-43.3575 70.3155 -41.0556 70.3264 -38.9883 70.3361C-30.188 70.3778 -25.6403 70.3994 -13.0402 72.2133C-12.7845 72.2334 -12.5297 72.2534 -12.2757 72.2733C-7.98788 72.6092 -3.94161 72.9261 0.199807 73.7066C4.61314 74.4532 9.19981 75.3066 14.3331 76.9599L14.3785 76.9658C17.8817 77.4187 22.7297 78.0454 28.0931 79.3066C30.4392 79.8293 32.9168 80.3721 35.4465 80.9264L36.5732 81.1733C39.4532 81.9733 42.3998 82.7866 45.3198 83.5999C57.0131 86.8933 67.9998 91.1466 73.0265 93.3866C86.3332 97.5866 95.7865 102.053 103.293 106.267C110.8 110.52 116.346 114.64 121.693 119.053C132.48 126.92 139.133 132.613 145.92 140.973C152.773 147.427 155.986 151.013 160.826 157.427C162.829 159.391 164.539 161.294 166.131 163.067L166.346 163.307C167.217 164.166 168.114 165.033 169.014 165.903C171.258 168.071 173.522 170.259 175.453 172.4L175.458 172.405C178.136 175.43 180.507 178.108 181.733 180.093C189.866 190.787 193.093 199.307 195.48 207.88C198.173 213.16 200.426 218.16 201.773 222.613C203.293 227.013 204 230.787 204.253 233.413C205.226 235.68 206.253 238.653 207.026 241.733C207.827 244.813 208.626 247.893 208.92 250.44C209.373 252.227 209.84 254.013 210.4 255.747C210.487 256.007 210.574 256.264 210.661 256.519C210.734 256.734 210.807 256.947 210.88 257.16C212.28 260.387 213.453 263.56 214.066 267.333C215.64 270.867 216.76 274.093 217.72 277.187C218.613 280.293 219.133 283.32 219.613 286.48C220.466 292.813 220.6 299.787 220.493 309.52C220.973 320.693 220.08 325.667 218.786 331.08C219.32 334.667 219.6 337.907 219.706 341.027C219.76 344.147 219.533 347.133 219.253 350.227C218.633 356.095 217.462 362.348 215.909 370.635L215.653 372C211.913 390.883 208.535 400.326 206.433 406.2L206.333 406.48C204.296 411.843 203.106 414.134 201.287 417.635C201.129 417.938 200.967 418.25 200.8 418.573C197.853 428.133 195.293 434.613 192.906 440.173C191.871 442.702 190.759 444.981 189.64 447.276C189.52 447.521 189.4 447.767 189.28 448.013C188.04 450.56 186.746 453.133 185.186 455.893C184.413 458.893 183.386 462.173 181.76 465.693C180.2 469.24 178.2 473.12 175.56 477.347C174.52 479.36 170.506 486.267 163.906 495.6C157.306 504.907 148.093 516.667 136.546 527.8C132.64 532.613 128.92 536.307 125.4 539.307C122.443 541.858 119.525 543.794 116.764 545.625C116.25 545.966 115.742 546.303 115.24 546.64C113.023 548.177 110.708 549.389 108.355 550.62C107.34 551.152 106.318 551.687 105.293 552.253C104.412 552.746 103.517 553.242 102.601 553.749C101.757 554.217 100.896 554.694 100.013 555.187C98.1198 556.107 96.1598 557.093 94.0798 558.213C89.8845 560.612 85.611 562.742 81.3295 564.876C80.3042 565.387 79.2784 565.898 78.2532 566.413C76.5775 567.38 74.8226 568.156 73.0557 568.937C72.5309 569.169 72.005 569.402 71.4798 569.64C69.1865 570.653 66.8265 571.64 64.3731 572.587C57.3465 574.88 50.2798 576.187 43.6665 576.813C42.8358 577.014 42.0061 577.225 41.1825 577.434C38.9392 578.005 36.7413 578.564 34.6932 578.867C31.7979 579.38 29.2394 579.726 26.7628 580.06C25.8977 580.177 25.0425 580.292 24.1865 580.413L24.1128 580.42C20.7902 580.738 17.4364 581.059 13.3731 581.787C4.6598 583.182 -2.92922 583.309 -11.1449 583.446C-12.2701 583.465 -13.407 583.484 -14.5602 583.507C-17.7107 583.849 -20.8446 584.142 -23.9665 584.433C-26.4333 584.664 -28.8927 584.894 -31.3469 585.147C-32.4313 585.273 -33.5023 585.398 -34.5694 585.522C-36.3098 585.725 -38.0396 585.927 -39.8002 586.133C-40.9433 586.24 -42.1035 586.355 -43.2808 586.473C-43.5729 586.502 -43.866 586.531 -44.1602 586.56C-45.6535 586.64 -47.2002 586.68 -48.8002 586.68C-53.4402 586.68 -58.4135 586.32 -63.3735 585.547C-75.5627 584.752 -87.8096 582.571 -99.7485 580.445C-100.634 580.287 -101.518 580.13 -102.4 579.973C-106.694 579.2 -110.4 578.32 -113.867 577.227C-117.347 576.16 -120.667 575.093 -124.134 573.733C-138.587 569.587 -153.614 564.173 -167.227 558.107C-180.854 552.08 -192.987 545.28 -202.16 539.467C-203.089 538.854 -203.978 538.278 -204.83 537.726C-206.887 536.392 -208.727 535.199 -210.387 533.973C-212.734 532.253 -214.84 530.667 -216.947 528.987C-218.73 527.627 -220.421 526.043 -222.275 524.306C-222.638 523.965 -223.009 523.619 -223.387 523.267C-225.707 521.107 -228.24 518.613 -231.12 515.4C-233.294 513.413 -235.08 511.773 -236.574 510.387C-237.442 509.565 -238.215 508.83 -238.91 508.169C-239.398 507.705 -239.848 507.276 -240.267 506.88C-242.32 504.973 -243.694 503.827 -245.134 502.64C-245.342 502.451 -245.552 502.262 -245.767 502.069C-246.978 500.978 -248.32 499.77 -250.2 497.947C-250.437 497.713 -250.684 497.47 -250.942 497.218C-251.888 496.293 -252.971 495.233 -254.187 493.933C-254.635 493.422 -255.107 492.882 -255.608 492.312C-256.776 490.98 -258.093 489.478 -259.587 487.76C-261.227 486.058 -262.635 484.421 -263.935 482.908C-264.316 482.465 -264.688 482.033 -265.054 481.613C-266.694 479.787 -268.147 478.147 -269.454 476.667L-269.891 476.149C-272.232 473.379 -274.105 471.162 -275.814 469.24C-277.643 467.252 -279.07 465.447 -280.556 463.566L-280.614 463.493L-280.641 463.458C-282.113 461.562 -283.637 459.598 -285.32 457.107C-291.753 447.111 -294.697 440.835 -297.112 435.687L-297.24 435.413C-298.542 432.267 -299.748 429.546 -301.112 426.467C-302.066 424.314 -303.097 421.985 -304.294 419.213C-305.707 416.147 -306.8 413.467 -307.867 410.187C-308.183 409.243 -308.526 408.262 -308.893 407.217C-309.794 404.645 -310.834 401.68 -311.934 397.907C-313.716 392.429 -314.267 388.865 -314.821 385.28C-314.947 384.466 -315.073 383.652 -315.214 382.813C-315.306 382.253 -315.401 381.683 -315.5 381.093C-315.601 380.49 -315.706 379.867 -315.814 379.213C-315.987 377.92 -316.2 376.507 -316.454 374.947C-316.657 373.679 -316.92 372.31 -317.211 370.798C-317.645 368.544 -318.14 365.972 -318.587 362.947C-318.759 361.807 -318.951 360.715 -319.135 359.663C-319.464 357.787 -319.77 356.039 -319.907 354.373C-320.132 352.291 -320.332 350.372 -320.519 348.57C-320.565 348.133 -320.609 347.704 -320.654 347.28C-320.724 346.637 -320.785 346.007 -320.846 345.389C-320.888 344.957 -320.93 344.529 -320.974 344.107C-321.014 343.08 -321.054 342.067 -321.094 341.067C-321.174 339.067 -321.24 337.12 -321.307 335.093C-321.307 334.774 -321.307 334.453 -321.307 334.129C-321.312 326.311 -321.317 317.201 -318.667 301.12C-317.052 292.166 -316.217 288.219 -315.705 285.803C-315.558 285.107 -315.438 284.538 -315.334 284.013L-315.302 283.879C-314.773 281.635 -314.414 280.106 -311.734 272.72L-311.56 272.173C-310.547 267.747 -308.4 260.627 -305.947 254.307C-301.254 242.04 -293.52 231.333 -291.52 232.32C-288.787 233.667 -291.494 243.04 -297.227 257.693C-297.639 258.775 -298.027 259.792 -298.396 260.758C-301.235 268.199 -302.912 272.594 -305.414 279.84C-309.243 295.35 -310.766 305.512 -311.935 313.315C-311.975 313.582 -312.014 313.845 -312.054 314.107L-312.079 314.288C-312.628 318.157 -313.097 321.463 -313.347 324.64C-313.434 325.693 -313.545 326.729 -313.655 327.764C-313.881 329.887 -314.107 332.008 -314.134 334.267C-314.134 337.733 -313.92 340.413 -313.6 342.707C-313.374 344.324 -312.983 345.756 -312.599 347.161C-312.438 347.748 -312.279 348.331 -312.134 348.92C-311.587 350.92 -311.12 353 -310.654 355.6C-310.08 358.187 -309.574 361.307 -309.214 365.44C-307.552 380.607 -302.329 394.469 -298.37 404.975L-298.24 405.32C-297.306 407.745 -296.497 409.932 -295.736 411.991C-292.583 420.515 -290.248 426.829 -283.267 438.653C-281.953 441.005 -280.53 443.014 -279.165 444.944C-278.494 445.891 -277.837 446.82 -277.214 447.76C-276.182 449.314 -275.092 450.804 -273.966 452.344C-273.024 453.631 -272.058 454.952 -271.08 456.373C-270.492 457.221 -269.91 458.13 -269.311 459.065C-268.987 459.571 -268.658 460.085 -268.32 460.6C-267.662 461.56 -266.993 462.544 -266.323 463.528C-265.988 464.02 -265.653 464.511 -265.32 465C-264.334 466.48 -263.347 467.933 -262.414 469.307C-261.59 470.485 -260.727 471.536 -259.934 472.501C-259.803 472.661 -259.674 472.818 -259.547 472.973C-255.382 478.083 -252.102 481.617 -249.466 484.458C-248.456 485.546 -247.541 486.533 -246.707 487.467C-246.472 487.698 -246.243 487.925 -246.017 488.148C-243.149 490.983 -240.929 493.177 -237.987 495.76C-226.614 505.52 -216.734 513.773 -205.76 522.28C-203.12 524.053 -200.627 525.533 -198.28 526.88C-197.636 527.248 -197.006 527.611 -196.388 527.967C-194.744 528.914 -193.185 529.813 -191.654 530.627C-190.293 531.309 -188.983 531.982 -187.699 532.641C-184.941 534.057 -182.303 535.411 -179.547 536.667C-178.069 537.342 -176.583 538.043 -175.056 538.763C-172.422 540.005 -169.663 541.307 -166.6 542.64C-163.39 544.142 -159.844 545.693 -155.829 547.448C-153.857 548.31 -151.773 549.221 -149.56 550.2C-145.827 550.453 -141.654 551.333 -137.054 552.44C-134.061 553.102 -130.93 553.975 -127.646 554.89C-125.838 555.394 -123.983 555.911 -122.08 556.413C-121.627 556.48 -121.174 556.56 -120.574 556.72C-119.014 557.133 -117.414 557.56 -115.8 558C-115.268 558.132 -114.732 558.264 -114.195 558.397C-113.104 558.665 -112.005 558.936 -110.907 559.213C-108.65 559.791 -106.392 560.382 -104.17 560.964C-103.163 561.227 -102.163 561.489 -101.174 561.747C-98.1956 562.527 -96.1538 563.282 -94.0742 564.05C-92.5318 564.62 -90.9685 565.198 -88.9869 565.8C-86.1482 566.736 -83.0566 567.38 -79.9654 568.023C-77.4231 568.552 -74.881 569.081 -72.4802 569.773C-70.5567 570.379 -68.5714 570.906 -66.5754 571.437C-65.3615 571.76 -64.1437 572.084 -62.9335 572.427L-62.4316 572.513C-60.3079 572.877 -58.4423 573.196 -56.7602 573.493C-56.0723 573.599 -55.4129 573.698 -54.7768 573.795C-53.7236 573.954 -52.7345 574.104 -51.7869 574.253C-50.8863 574.391 -50.0195 574.531 -49.1637 574.669C-47.1177 574.999 -45.1349 575.319 -42.9069 575.573C-39.7468 575.867 -36.1068 576.107 -31.1202 576.28C-29.2907 576.329 -27.2818 576.277 -25.0512 576.22C-24.2418 576.199 -23.4033 576.178 -22.5335 576.16C-22.0635 576.145 -21.5834 576.129 -21.0933 576.113C-19.8874 576.075 -18.6208 576.034 -17.2935 575.987C-16.0323 575.914 -14.7093 575.798 -13.3246 575.677C-12.6745 575.62 -12.0108 575.562 -11.3335 575.507C-10.0568 575.266 -8.76519 575.056 -7.46801 574.844C-5.5273 574.528 -3.57418 574.21 -1.64019 573.787C1.58647 573.133 4.77314 572.533 7.83982 572.053C8.38563 571.963 8.92991 571.872 9.47291 571.781C12.538 571.269 15.5623 570.764 18.5865 570.413C20.811 569.902 22.9616 569.236 25.1338 568.564C26.0211 568.289 26.9121 568.013 27.8131 567.747C29.4416 567.243 31.1103 566.81 32.8289 566.363C34.389 565.958 35.9903 565.542 37.6398 565.053C40.4797 564.269 43.1051 563.78 45.6207 563.312C46.483 563.151 47.3324 562.993 48.1732 562.827C49.5086 562.557 50.8266 562.292 52.1536 562.026C54.1123 561.632 56.0906 561.235 58.1731 560.813C59.9601 560.262 61.659 559.534 63.3519 558.81C64.0337 558.518 64.7146 558.226 65.3998 557.947C66.3867 557.504 67.3901 557.091 68.3961 556.678C69.7823 556.108 71.1734 555.537 72.5332 554.88C75.7598 553.373 78.7998 552.133 81.8398 550.947C84.4892 549.828 87.0554 548.564 89.768 547.227C90.127 547.051 90.4885 546.872 90.8532 546.693C93.4874 545.477 95.9625 543.926 98.4498 542.369C99.261 541.861 100.073 541.352 100.893 540.853C104.778 538.956 108.305 536.676 112.02 534.275L112.466 533.987C122.186 526.987 129.546 519.227 135.853 511.827C142.106 504.347 147.146 496.973 151.72 489.667C156.24 482.32 160.36 475.053 164.426 467.453C165.536 465.511 166.588 463.512 167.653 461.487C168.636 459.618 169.631 457.727 170.693 455.84C171.661 453.897 172.7 451.955 173.758 449.977C174.9 447.841 176.065 445.664 177.186 443.4C179.736 438.604 181.854 434.622 183.782 430.997C185.504 427.76 187.075 424.807 188.666 421.813C189.34 420.342 189.937 418.903 190.522 417.493C191.062 416.194 191.591 414.92 192.16 413.667C192.54 412.829 192.914 411.995 193.287 411.162C194.078 409.397 194.868 407.634 195.72 405.84C196.254 404.766 196.762 403.789 197.249 402.852C198.904 399.672 200.325 396.94 201.746 392.347C202.18 390.884 202.496 389.442 202.813 388C203.119 386.602 203.426 385.204 203.84 383.787C204.154 382.75 204.461 381.774 204.761 380.818C205.237 379.302 205.697 377.837 206.146 376.267C207.426 371.813 207.84 369.64 208.093 367.813C208.246 366.761 208.337 365.813 208.455 364.593C208.543 363.68 208.646 362.615 208.8 361.24C209.026 357.947 209.226 354.96 209.426 351.947C209.493 348.707 209.613 345.347 210 341.693C210.266 338.04 210.706 334.093 211.28 329.627C211.375 326.506 211.414 325.206 211.466 323.445C211.501 322.25 211.543 320.842 211.613 318.507C211.581 318.22 211.566 317.993 211.588 318.201C211.594 318.254 211.602 318.336 211.613 318.453V318.427C211.36 315.88 211.173 313.467 211.04 311.093C210.984 310.277 210.923 309.468 210.861 308.662C210.745 307.135 210.63 305.62 210.56 304.093C210.479 301.756 210.335 299.408 210.186 296.983C210.038 294.58 209.886 292.101 209.786 289.48C208.88 284.253 208.24 278.76 207.72 274.013C207.656 273.486 207.604 272.959 207.552 272.427C207.417 271.06 207.279 269.659 206.933 268.133C206.093 264.493 204.986 260.893 203.786 257.68C202.686 254.578 201.443 251.319 200.215 248.099C199.806 247.028 199.399 245.962 199 244.907C198.466 243.413 198.027 241.987 197.64 240.6C197.226 239.227 196.826 237.893 196.426 236.573C196.223 235.918 196.033 235.261 195.842 234.601C195.267 232.619 194.687 230.618 193.746 228.587C193.69 228.46 193.637 228.341 193.587 228.227C193.399 227.802 193.243 227.45 193.053 227.04C192.447 225.77 191.86 224.481 191.269 223.185C190.52 221.542 189.765 219.887 188.96 218.24C187.146 215.347 185.48 212.76 183.533 210.253C182.459 208.843 181.435 207.379 180.358 205.84C179.51 204.628 178.63 203.369 177.666 202.053C176.035 199.604 174.483 197.102 172.935 194.606C169.383 188.88 165.855 183.192 161.453 178.28C158.487 175.156 156.788 173.693 154.893 172.06C154.223 171.484 153.529 170.886 152.746 170.187C151.352 168.942 149.737 167.322 147.404 164.982C144.74 162.31 141.141 158.701 135.866 153.64C128.053 148.147 121.053 143.187 111.68 135.453C110.812 134.223 109.8 133.4 108.307 132.187C107.988 131.927 107.647 131.65 107.28 131.347C100.8 125.307 94.4398 119.587 82.8398 114.84C81.0496 114.132 79.3354 113.671 77.6122 113.207C76.4476 112.894 75.2789 112.579 74.0798 112.187C73.2675 111.901 72.4552 111.62 71.6444 111.34C69.5805 110.628 67.5263 109.918 65.5065 109.133C63.8105 108.493 62.1433 107.796 60.4762 107.098C59.3647 106.633 58.2532 106.168 57.1332 105.72C55.1505 104.988 53.1858 104.198 51.2168 103.407C47.5581 101.936 43.8845 100.46 40.0531 99.3333C24.11 94.426 19.5679 93.4257 6.43571 90.5337C3.9398 89.9841 1.13358 89.3661 -2.12017 88.64C-4.01351 87.92 -5.82686 87.1066 -7.52019 86.3199C-9.80019 85.8133 -12.0002 85.24 -14.1869 84.6666C-18.0748 83.9463 -19.6411 83.6722 -20.3382 83.5503C-20.712 83.4849 -20.8358 83.4632 -20.9335 83.4399C-20.9496 83.4353 -20.965 83.4308 -20.9807 83.4261C-21.2382 83.3499 -21.5799 83.2488 -26.4935 82.52C-28.011 82.4066 -29.363 82.3103 -30.5794 82.2237C-31.2228 82.1779 -31.8282 82.1348 -32.4002 82.0933C-33.5983 82.0353 -34.6564 82.0334 -35.6048 82.0316C-35.9652 82.0309 -36.3098 82.0303 -36.6402 82.0266C-38.5939 82.0374 -40.102 82.0482 -41.61 82.059L-42.6802 82.0666C-44.5868 82.0399 -46.6669 82.0266 -49.8002 82.08C-50.6538 82.0727 -51.5821 82.0694 -52.604 82.0658C-53.4656 82.0627 -54.3938 82.0594 -55.4002 82.0533C-55.8855 82.0474 -56.3863 82.039 -56.9057 82.0303C-57.5708 82.0191 -58.2666 82.0074 -59.0002 81.9999C-59.3426 82.0105 -59.6934 82.0211 -60.0523 82.032C-61.0493 82.0621 -62.1092 82.0941 -63.2269 82.1333C-66.7981 83.0904 -70.6668 83.7404 -74.739 84.4246C-78.892 85.1223 -83.2567 85.8556 -87.7335 86.9866C-90.2402 87.6666 -92.8268 88.3199 -95.4935 88.9599C-96.9492 89.3166 -98.4088 89.7288 -99.8811 90.1447C-101.106 90.4906 -102.34 90.839 -103.587 91.1599C-106.585 91.8752 -109.587 92.743 -112.603 93.6151C-115.154 94.3525 -117.715 95.0929 -120.294 95.7466C-128.46 98.2458 -136.598 100.593 -144.058 102.744C-146.707 103.508 -149.271 104.247 -151.72 104.96L-152.057 105.047C-154.962 105.802 -157.77 106.531 -161.134 107.853C-161.293 107.914 -161.454 107.976 -161.617 108.038C-165.045 109.348 -169.201 110.935 -174.547 113.787C-176.267 114.787 -177.92 115.787 -179.56 116.8C-180.703 117.506 -181.787 118.277 -182.868 119.045C-183.338 119.379 -183.807 119.712 -184.28 120.04C-185.527 120.938 -186.79 121.807 -188.06 122.682C-189.939 123.977 -191.834 125.282 -193.72 126.707C-195.797 128.215 -197.973 129.021 -200.143 129.825C-202.347 130.641 -204.544 131.455 -206.627 133C-209.347 134.973 -211.56 136.813 -213.694 138.733C-215.707 140.907 -217.827 143.04 -220.574 145.187C-221.367 145.799 -222.132 146.338 -222.87 146.857C-223.384 147.219 -223.886 147.572 -224.374 147.933C-225.907 149.347 -227.467 150.813 -229.254 152.627C-231.802 155.124 -233.812 157.097 -235.97 159.217C-236.589 159.825 -237.22 160.445 -237.88 161.093C-238.2 161.437 -238.563 161.824 -238.926 162.211C-239.168 162.469 -239.411 162.728 -239.64 162.973C-241.58 164.986 -243.321 167.163 -245.034 169.306C-245.205 169.52 -245.376 169.734 -245.547 169.947C-245.909 170.411 -246.274 170.872 -246.637 171.331C-248.129 173.219 -249.601 175.083 -250.867 177.067C-252.987 180.387 -254.974 183.227 -257.68 186.427C-258.964 188.065 -260.229 189.527 -261.483 190.977C-263.16 192.915 -264.818 194.832 -266.48 197.12C-267.085 198.177 -267.77 199.377 -268.51 200.675C-269.124 201.751 -269.776 202.895 -270.454 204.08C-271.029 205.074 -271.642 206.081 -272.262 207.099ZM-167.76 169.093C-166.503 168.25 -165.208 167.394 -163.936 166.554L-163.933 166.552C-161.146 164.711 -158.469 162.943 -156.547 161.533C-154.614 160.537 -152.79 159.831 -150.953 159.119L-150.952 159.119C-149.52 158.565 -148.08 158.007 -146.574 157.307C-143.56 156.053 -141.214 154.707 -138.614 153.053C-136.953 152 -135.164 151.123 -133.358 150.238C-133.061 150.092 -132.764 149.947 -132.467 149.8L-131.985 149.572C-130.019 148.644 -128.016 147.697 -125.934 146.933C-125.334 146.707 -124.627 146.44 -124.054 146.227C-120.96 145.267 -118.467 144.48 -115.08 143.347C-113.2 142.68 -111.6 142.2 -110.027 141.747C-109.711 141.706 -109.39 141.668 -109.064 141.629L-109.062 141.629C-108.22 141.53 -107.341 141.426 -106.4 141.253C-103.734 140.747 -101.52 139.947 -99.3735 139.053C-97.2135 138.427 -95.0402 137.867 -92.4402 137.467C-90.4772 137.135 -88.6594 137.457 -86.8407 137.778C-85.0028 138.103 -83.1639 138.428 -81.1735 138.08C-79.4944 137.762 -77.844 137.505 -76.2087 137.251L-76.2066 137.251C-74.8949 137.047 -73.5929 136.845 -72.2935 136.613C-69.3735 136.067 -66.4269 135.72 -63.3335 135.533C-58.3869 135.44 -54.8402 135.88 -51.9335 136.253C-49.1473 136.571 -46.968 137.132 -44.7008 137.716L-44.7003 137.716L-44.3735 137.8C-36.9469 139.453 -28.2535 141.253 -19.4002 142.747C-13.7033 143.819 -7.95666 144.897 -2.48363 145.924C0.548715 146.493 3.49708 147.046 6.30647 147.573C9.60438 148.201 12.7011 149.084 15.6634 149.929C18.9888 150.876 22.1449 151.776 25.2265 152.213C33.7198 156.467 36.8665 158.04 39.5198 159.36C40.0424 159.608 40.5448 159.849 41.0631 160.096L41.0748 160.102L41.0819 160.105C41.8935 160.494 42.7448 160.901 43.7731 161.387C45.4798 162.173 47.5865 163.347 50.6798 165.227C53.7937 167.49 54.0105 167.713 54.1574 167.864L54.1582 167.865C54.1677 167.874 54.1768 167.884 54.1865 167.893C54.273 167.973 54.4063 168.075 55.1005 168.61L55.1157 168.622C55.7073 169.078 56.6996 169.842 58.3998 171.16C59.6932 172.373 60.9998 173.587 62.3731 174.773C63.2131 176 64.1331 177.28 65.1598 178.507C68.1184 180.953 70.4835 182.882 72.5193 184.542C79.0709 189.885 82.2118 192.446 90.7465 200.533C93.0092 202.615 95.0332 204.908 97.0442 207.187L97.0447 207.187L97.0449 207.187C98.1502 208.44 99.2516 209.687 100.386 210.893C103.426 214.467 106.6 217.88 110.093 221.133C110.829 221.809 111.586 222.408 112.34 223.004L112.34 223.005C113.43 223.867 114.517 224.726 115.533 225.813C122.173 232.987 124.333 239.387 126.466 245.987C126.589 246.284 126.707 246.561 126.817 246.822C127.424 248.257 127.827 249.212 127.906 250.453C131.56 259.147 134.8 264.92 138.56 271.333C139.867 275.065 140.87 278.014 141.679 280.392L141.68 280.394C143.041 284.396 143.854 286.784 144.64 288.573C145.003 289.404 145.336 290.11 145.661 290.797C146.456 292.482 147.2 294.058 148.213 297.107C149.583 301.656 150.018 306.438 150.456 311.261L150.456 311.261C150.696 313.902 150.937 316.554 151.333 319.187C151.726 321.643 152.199 323.824 152.658 325.939L152.658 325.939C153.258 328.703 153.833 331.354 154.173 334.36C154.133 336.907 154.093 339.427 154.053 341.907C154.048 342.083 154.043 342.245 154.038 342.407C154.029 342.662 154.021 342.917 154.013 343.227C153.972 345.035 153.642 346.684 153.316 348.315C153.221 348.788 153.127 349.26 153.04 349.733C152.955 350.193 152.868 350.654 152.78 351.119C152.463 352.786 152.136 354.509 151.906 356.427C151.626 359.947 151.333 363.64 151.066 367.04C150.84 369.72 150.466 372.64 149.773 375.48C149.496 376.667 149.087 377.682 148.687 378.678L148.687 378.678C148.529 379.07 148.373 379.458 148.226 379.853C146.853 383.32 145.386 387.373 144.253 391.347C140.84 398.853 138.266 404.733 135.533 412.227L135.52 412.253C135.666 411.827 135.586 412.013 135.493 412.293C133.735 415.495 133.39 416.153 132.294 418.243C132.044 418.72 131.754 419.272 131.4 419.947C129.386 422.827 127.68 425.413 126.226 427.88C124.693 430.293 123.48 432.627 122.386 434.92C121.24 436.987 120.106 439.027 118.84 441.293C118.153 442.381 117.681 443.195 117.276 443.892C116.093 445.929 115.489 446.969 111.813 450.933C111.074 451.721 110.349 452.444 109.612 453.179C108.927 453.862 108.232 454.555 107.506 455.32C106.707 456.173 106.003 457.066 105.3 457.96L105.3 457.96L105.299 457.96C104.596 458.854 103.893 459.747 103.093 460.6C100.557 463.246 98.5563 464.574 96.2803 466.084L96.2799 466.084C95.5285 466.582 94.747 467.101 93.9065 467.693C90.2265 470.4 86.9598 473.107 83.2665 476.213C81.6596 477.321 80.0592 478.401 78.3833 479.531C75.2196 481.665 71.7866 483.98 67.5332 487.013C64.7412 489.03 62.0592 490.964 59.4536 492.843L59.4268 492.863C56.3056 495.114 53.2937 497.286 50.3331 499.427C44.8931 503.373 39.5731 507.12 33.9198 510.773C28.2532 514.4 22.2265 517.893 15.3065 521.027C8.37315 524.067 0.546487 526.973 -8.66686 528.427L-8.79101 528.438C-12.3317 528.767 -15.6805 529.079 -19.1335 528.96C-19.8851 529.02 -20.635 529.09 -21.3834 529.16L-21.3841 529.16C-23.6496 529.372 -25.902 529.583 -28.1469 529.493C-30.8535 529.453 -33.3602 529.413 -35.8935 529.227C-38.4135 528.96 -40.9469 528.733 -43.7069 528.68C-44.8893 528.672 -46.0539 528.597 -47.2136 528.523C-48.0545 528.469 -48.8928 528.415 -49.7335 528.387C-50.2649 528.355 -50.7971 528.331 -51.3301 528.308C-52.8032 528.243 -54.2817 528.178 -55.7602 527.933L-56.6422 527.669C-58.9707 526.97 -61.1472 526.317 -63.3869 525.653C-63.7888 525.531 -64.1924 525.405 -64.5994 525.279C-66.7173 524.622 -68.9259 523.936 -71.4535 523.467C-72.4845 523.288 -73.4804 523.097 -74.4543 522.91C-76.1004 522.594 -77.6836 522.289 -79.2669 522.08C-80.0213 521.971 -80.7733 521.873 -81.5232 521.775L-81.5243 521.775C-83.2524 521.55 -84.9695 521.327 -86.6802 520.973C-89.3202 520.027 -92.0135 519.24 -94.7735 518.453C-97.227 517.734 -99.8519 517.097 -102.504 516.453L-102.505 516.453L-102.505 516.453C-104.869 515.879 -107.255 515.3 -109.56 514.653C-109.961 514.501 -110.356 514.353 -110.745 514.207L-110.745 514.207C-111.859 513.789 -112.926 513.388 -113.934 512.973C-115.267 512.387 -116.507 511.84 -117.667 511.32C-118.125 511.111 -118.571 510.908 -119.005 510.711C-120.784 509.903 -122.364 509.185 -123.747 508.467C-127.187 506.627 -129.654 505.173 -131.747 503.853C-133.378 502.759 -134.767 501.723 -136.238 500.627C-136.631 500.334 -137.03 500.037 -137.44 499.733C-137.909 499.398 -138.386 499.05 -138.884 498.687L-138.885 498.687L-138.886 498.686C-139.436 498.286 -140.011 497.867 -140.627 497.427C-141.184 497.011 -141.768 496.57 -142.389 496.102L-142.395 496.097L-142.4 496.094C-143.07 495.589 -143.781 495.052 -144.547 494.48C-145.31 493.733 -146.09 492.999 -146.865 492.268L-146.866 492.268L-146.866 492.268C-147.986 491.213 -149.099 490.165 -150.147 489.093C-151.598 487.673 -153.242 486.36 -154.882 485.051C-156.752 483.557 -158.617 482.068 -160.187 480.427C-161.281 479.332 -162.114 478.381 -162.927 477.452C-164.114 476.094 -165.26 474.785 -167.12 473.147C-167.951 472.425 -168.791 471.691 -169.637 470.952L-169.643 470.947C-170.764 469.968 -171.896 468.979 -173.027 468C-175.054 466.307 -177.067 464.613 -178.96 462.947C-179.334 462.64 -179.627 462.427 -179.92 462.24C-186.427 456.52 -192.147 451.52 -197.494 448.84C-204.827 440 -209.44 434.347 -213.8 428.96C-215.316 427.133 -216.714 425.275 -218.177 423.33L-218.177 423.329C-218.849 422.435 -219.536 421.523 -220.254 420.587C-221.245 419.237 -222.215 417.781 -223.249 416.227L-223.614 415.68C-224.814 413.92 -226.054 412.027 -227.28 409.867C-230.816 402.151 -233.954 394.824 -237.359 386.875C-238.32 384.632 -239.302 382.339 -240.32 379.973C-242.76 373.853 -244.067 370.36 -247.374 356.547C-247.934 354.413 -248.24 351.707 -248.52 348.947C-248.636 347.91 -248.752 346.862 -248.866 345.826C-249.055 344.119 -249.239 342.447 -249.414 340.92C-249.618 339.429 -249.867 338.028 -250.11 336.662L-250.111 336.662C-250.344 335.354 -250.571 334.078 -250.747 332.787C-250.861 331.977 -250.998 331.164 -251.138 330.337L-251.138 330.336C-251.454 328.466 -251.783 326.519 -251.894 324.347C-252.676 314.118 -252.059 308.903 -251.276 302.296C-251.046 300.35 -250.801 298.284 -250.574 295.933C-250.507 295.291 -250.44 294.633 -250.371 293.96C-249.511 285.511 -248.416 274.758 -244.427 264.36C-243.2 261.387 -242.494 259.04 -242.04 257.027C-241.507 255.04 -241.187 253.4 -240.947 251.787C-240.873 251.342 -240.81 250.897 -240.747 250.45C-240.583 249.287 -240.416 248.105 -240.04 246.853C-239.52 245.12 -238.774 243.16 -237.56 240.733C-236.74 239.175 -235.823 237.781 -234.903 236.382L-234.903 236.382C-234.461 235.711 -234.019 235.038 -233.587 234.347C-232.435 232.474 -231.121 230.591 -229.627 228.45L-229.627 228.449C-229.408 228.136 -229.186 227.818 -228.96 227.493C-228.627 227.025 -228.285 226.543 -227.933 226.046L-227.917 226.023L-227.917 226.023C-224.453 221.136 -219.975 214.818 -212.507 205.827C-209.118 202.585 -206.713 200.38 -203.637 197.558L-203.632 197.554C-202.268 196.303 -200.773 194.931 -199 193.293C-189.907 185.053 -185.014 179.107 -186.854 176.707C-188.2 174.92 -197.68 179.373 -205.307 186.387C-209.24 189.973 -213.214 194.293 -215.414 197.107L-215.734 197.44C-220.36 201.72 -221.107 202.613 -222.28 204.08C-222.533 204.412 -222.81 204.769 -223.148 205.204C-224.342 206.742 -226.288 209.25 -230.56 215.04C-238.048 225.459 -241.223 231.91 -243.943 237.434L-244.14 237.836L-244.28 238.12C-244.837 239.359 -245.374 240.568 -245.917 241.79L-245.925 241.808L-246.2 242.427C-246.854 243.853 -247.48 245.333 -248.04 246.973C-248.18 247.355 -248.323 247.743 -248.469 248.138C-249.559 251.095 -250.799 254.457 -251.987 258.773C-252.636 260.827 -253.14 262.632 -253.586 264.232L-253.586 264.233C-253.975 265.626 -254.32 266.863 -254.68 267.973C-255.467 270.36 -256.08 272.213 -256.654 273.933C-256.852 274.525 -257.052 275.099 -257.251 275.672C-258.208 278.417 -259.156 281.138 -259.84 285.693C-260.378 288.622 -260.692 291.007 -260.964 293.08L-260.965 293.081C-261.09 294.037 -261.207 294.927 -261.334 295.773C-261.76 298.453 -261.947 300.733 -262.014 303.4C-262.047 304.066 -262.079 304.703 -262.11 305.315C-262.347 310.013 -262.511 313.284 -262.854 317.307L-262.859 317.43C-263.044 321.94 -263.271 327.433 -262.24 336.84C-261.547 341.573 -260.854 344.587 -259.667 348.733C-259.067 350.8 -258.454 353.173 -257.694 356.2C-257.244 357.653 -256.826 359.277 -256.358 361.098C-255.868 363.005 -255.322 365.127 -254.627 367.493C-254 369.973 -253.48 372.04 -253.054 373.773C-252.641 375.2 -252.229 376.384 -251.871 377.412L-251.869 377.417C-251.799 377.617 -251.732 377.811 -251.667 378C-250.935 380.11 -250.382 381.484 -249.874 382.744L-249.734 383.093C-249.12 384.44 -248.547 385.733 -247.774 387.8C-247.387 388.84 -246.96 390.067 -246.454 391.6C-245.907 393.107 -245.254 394.907 -244.454 397.093C-243.68 400.44 -242.867 403.147 -242.067 405.52C-241.986 405.759 -241.907 405.996 -241.828 406.23C-241.128 408.316 -240.497 410.195 -239.694 411.933C-237.974 415.853 -236.134 419.493 -233.067 424.653C-228.667 432.04 -222.494 441.133 -214.974 450.2C-207.48 459.28 -198.747 468.387 -189.947 476.387C-188.014 478.613 -186.067 480.547 -184 482.547C-181.947 484.56 -179.64 486.48 -176.84 488.493C-175.722 489.297 -174.602 490.106 -173.478 490.918C-166.228 496.157 -158.84 501.495 -151.014 505.893C-147.774 508.173 -144.374 510.187 -141.054 511.733C-137.902 513.259 -134.89 514.157 -131.916 515.044C-130.575 515.444 -129.242 515.841 -127.907 516.293C-124.349 517.536 -120.772 518.789 -117.167 520.051L-117.159 520.054L-115.334 520.693C-114.186 521.237 -113.065 521.777 -111.958 522.311C-106.488 524.946 -101.352 527.422 -95.0535 529.307C-91.8935 530.2 -89.4135 531.173 -86.9469 532.147C-86.3414 532.357 -85.739 532.571 -85.131 532.786C-83.2354 533.459 -81.285 534.15 -79.0135 534.827C-77.4475 535.339 -75.6849 535.72 -73.8818 536.11C-73.2441 536.248 -72.6012 536.387 -71.9602 536.533C-67.1069 538.573 -61.6802 540.333 -55.8935 541.173C-51.7335 541.507 -47.8269 541.72 -43.8802 541.547C-43.2124 541.539 -42.5454 541.532 -41.879 541.526C-37.8482 541.485 -33.8372 541.444 -29.7869 541.227C-27.9202 541.173 -26.1735 541.173 -24.5202 541.2C-22.8535 541.16 -21.2669 541.12 -19.7335 541.08C-18.7743 541.055 -17.828 541.055 -16.8877 541.054C-14.809 541.054 -12.7601 541.053 -10.6669 540.787C-10.4508 540.762 -10.2337 540.737 -10.0155 540.713C-9.83373 540.693 -9.65127 540.673 -9.46804 540.652L-9.46776 540.652C-6.78982 540.356 -3.94753 540.041 -0.853537 539.253C2.70646 538.36 6.63981 536.987 11.0531 534.827C23.1731 531.053 33.8532 526 41.7865 521.733C49.7198 517.48 54.9732 514 56.3998 512.907C63.0798 508.773 67.4665 504.747 70.4531 500.787C72.5331 499.387 74.3331 498.04 76.1065 496.68L76.2592 496.563C77.9802 495.243 79.6778 493.941 81.4131 492.413C85.0131 489.307 89.0531 485.587 94.3998 479.8C94.6959 479.597 94.9793 479.403 95.2533 479.216L95.254 479.216C97.7301 477.525 99.4293 476.365 102.706 473.4C106.28 470.053 112.013 464.6 121.4 452.373C122.149 451.375 122.865 450.424 123.552 449.513L123.555 449.509L123.556 449.508C126.831 445.164 129.429 441.718 131.6 438.28C132.866 436.187 134.053 434.147 135.053 431.893C136.013 429.613 136.853 427.173 137.586 424.373C140.6 421.133 143.08 417.987 146.613 409.92C150.213 403.12 152.653 398.187 154.266 393.413C155.026 391 155.68 388.68 156.053 386.147C156.386 383.6 156.613 380.893 156.56 377.8C157.493 374.947 157.666 372.267 157.68 369.48C157.733 369.08 157.773 368.707 157.826 368.307C158.026 366.88 158.306 365.467 158.626 364.053C159.373 362.173 159.946 359.733 160.48 357.293C161.053 354.853 161.373 352.387 161.44 350.453C163.28 346.627 164.92 338.76 164.6 329.4C166.306 322.507 167.226 315.307 165.08 304.88C164.92 303.04 164.133 300.32 163.213 297.253C162.534 295.054 161.622 292.717 160.717 290.4L160.717 290.398L160.716 290.397C160.36 289.485 160.005 288.576 159.666 287.68C159.146 285.8 158.573 283.773 157.786 281.6C156.773 275.333 155.826 271.64 153.28 264.667C151.76 256.213 149.093 249.813 144.28 240.427C142.173 235.347 139.773 230.427 135.946 224.773C132.106 219.16 126.88 212.733 118.72 205.293C115.946 201.947 109.626 195.133 102.453 188.773C101.481 187.917 100.501 187.057 99.5235 186.199C98.7048 185.481 97.8882 184.764 97.0798 184.053C95.7947 183.053 94.5348 182.065 93.3133 181.107L93.3042 181.1C92.7546 180.669 92.2127 180.244 91.6798 179.827C88.2798 177.107 85.0265 175.013 82.6665 173.507C79.6932 170.48 76.7598 168.253 73.9065 166.187C71.0931 164.067 68.1731 162.373 65.0398 160.56C56.9927 154.916 53.73 153.3 47.7465 150.337L47.7457 150.337C46.1946 149.568 44.4607 148.71 42.4131 147.667C39.6117 146.405 37.1721 145.163 34.8063 143.959L34.8039 143.958C34.4456 143.775 34.089 143.594 33.7331 143.413C30.9865 142.093 28.2265 140.947 25.1198 139.813C21.0531 137.4 13.9732 134.227 2.51981 131.507C-13.3869 125.667 -31.0002 121.64 -48.2802 124.56C-57.3553 124.631 -58.5108 124.91 -60.561 125.406L-60.5613 125.406C-61.957 125.743 -63.7675 126.18 -68.7735 126.72L-68.8135 126.787C-71.8935 126.52 -75.3735 126.587 -78.9469 126.8C-82.5069 127.12 -86.1602 127.773 -89.6135 128.453C-96.3868 129.333 -98.7069 129.827 -100.72 130.293C-101.031 130.383 -101.334 130.472 -101.646 130.564C-103.327 131.059 -105.252 131.627 -109.92 132.707C-111.075 132.93 -112.17 133.226 -113.233 133.514L-113.234 133.514C-113.753 133.654 -114.266 133.793 -114.774 133.92C-115.362 134.02 -115.953 134.114 -116.547 134.209L-116.548 134.209C-119.117 134.618 -121.746 135.036 -124.507 136C-127 136.813 -128.974 137.747 -130.894 138.667C-131.469 138.95 -132.035 139.246 -132.61 139.546L-132.613 139.547C-133.957 140.248 -135.348 140.973 -137 141.627C-141.076 143.173 -144.108 145.103 -147.28 147.123C-147.937 147.541 -148.6 147.963 -149.28 148.387C-150.319 148.903 -151.357 149.479 -152.446 150.084L-152.447 150.085C-153.58 150.714 -154.768 151.374 -156.067 152.027C-159.267 153.507 -161.76 154.68 -164.267 156.12C-164.877 156.471 -165.501 156.817 -166.143 157.175L-166.143 157.175C-168.138 158.285 -170.319 159.498 -172.88 161.253C-175.534 163.027 -177.854 164.747 -179.827 166.333C-181.747 167.987 -183.267 169.56 -184.44 170.947C-186.76 173.733 -187.547 175.827 -186.627 177C-185.934 177.893 -183.227 177.28 -179.747 175.733C-178.47 175.192 -177.124 174.475 -175.687 173.71L-175.686 173.71C-175.142 173.42 -174.585 173.123 -174.014 172.827C-171.947 171.733 -169.827 170.467 -167.76 169.093ZM-80.3335 183.027C-71.3735 182.08 -65.8935 181.613 -65.8269 184.547C-65.7743 186.333 -70.1375 186.728 -75.4291 187.207L-75.4318 187.207C-76.8525 187.336 -78.34 187.471 -79.8269 187.64C-83.0402 187.787 -86.2535 188.093 -89.4402 188.453C-96.1602 189.747 -102.587 191.587 -108.68 193.973C-114.76 196.36 -120.414 199.413 -125.72 202.84C-130.96 206.413 -135.814 210.4 -140.24 214.773C-144.6 219.24 -148.574 224.027 -152.12 229.147C-160.36 241.28 -167.44 254.387 -172.267 268.267C-177.067 282.133 -179.494 296.867 -179.267 311C-179 326.72 -177.174 342.107 -174.054 357.213C-170.894 372.347 -166.68 387.107 -160.467 401.133C-154.374 415.187 -146.267 428.453 -135.654 439.787C-124.987 451.027 -111.547 460.027 -95.9069 464.627C-87.5069 467.173 -78.9602 468.347 -70.5335 468.773C-62.0935 469.213 -53.7735 468.933 -45.5735 468.107C-29.1602 466.4 -13.2535 462.853 3.25315 457.747C15.6131 453.907 25.8931 447.947 34.9998 440.907C44.1198 433.84 52.0798 425.693 59.9598 416.32C66.5998 408.253 72.4665 400.72 77.1731 392.133C81.9065 383.613 85.4398 373.96 86.6265 362.533C88.4798 343.533 87.9198 325.28 84.7998 307.12C81.6131 289.04 75.2265 270.88 63.5332 254.387C56.6932 244.84 49.1865 236.08 40.9465 228.16C32.6531 220.307 23.6131 213.333 13.8931 207.387C-5.57351 195.6 -28.0402 188.093 -51.6669 186.867C-52.3991 186.84 -53.1062 186.813 -53.7872 186.788C-55.1523 186.736 -56.4126 186.689 -57.5602 186.653C-59.2935 186.64 -60.7869 186.627 -62.0002 186.507C-64.4269 186.267 -65.7869 185.653 -65.8402 184.16C-65.9202 181.973 -58.6802 181.787 -51.4269 182.227C-35.6535 183.08 -20.3202 185.893 -5.5602 190.76C1.79981 193.24 9.05314 196.16 16.1065 199.68C23.1198 203.253 29.9732 207.333 36.5865 211.973C52.7598 223.413 67.3998 238.08 78.5998 255.333C89.8398 272.533 97.5331 292.267 100.586 312.293C104.266 336.44 101.893 359.067 94.8798 379.933C91.3731 390.36 86.4931 400.28 80.5998 409.667C74.6131 419.013 67.6665 427.92 59.5198 436.453C51.9998 444.467 43.2532 451.427 33.8265 457.36C24.3198 463.187 14.1332 467.92 3.5998 471.347C-17.4802 478.32 -39.6269 480.467 -60.6535 479.173C-78.1602 478.093 -94.1735 475.187 -109.107 469.16C-124.014 463.053 -137.187 453.707 -149.147 441.613C-173.08 416.787 -189.587 384.013 -194 347.853C-196.214 328.813 -195.854 309.613 -192.334 291.093C-188.867 272.587 -182.04 254.747 -171.934 239.133C-161.867 223.507 -148.64 209.907 -132.84 200.107C-124.947 195.227 -116.44 191.267 -107.574 188.52C-98.7069 185.747 -89.5469 184.027 -80.3335 183.027ZM-11.0275 256.556C-7.23934 259.153 -4.94713 260.725 -6.73354 262.907C-7.94933 264.406 -10.2012 262.817 -12.796 260.986L-12.7977 260.985C-13.2472 260.668 -13.707 260.344 -14.1735 260.027C-15.4935 258.893 -16.8668 257.84 -18.2669 256.787C-24.7202 253.213 -31.5335 251.173 -38.2402 250.707C-41.6135 250.52 -44.9469 250.667 -48.2135 251.147C-51.4802 251.693 -54.6669 252.52 -57.7335 253.653C-64.9602 256.387 -71.9869 259.307 -78.4535 263.187C-84.8935 267.067 -90.8268 272.053 -95.2135 277.96C-100.08 284.507 -104.454 291.187 -108.467 298.16C-112.467 305.173 -116.107 312.28 -118.8 319.827C-121.56 327.347 -123.334 335.28 -123.427 343.4C-123.44 351.493 -121.56 359.747 -117.014 367.08C-112.107 375 -104.76 380.76 -97.4002 385.453C-90.5793 389.729 -83.5804 393.18 -76.19 396.825C-75.4903 397.17 -74.7871 397.517 -74.0802 397.867C-67.9335 400.88 -61.7068 401.893 -55.6669 401.973C-49.6002 402.053 -43.7202 401.267 -37.4268 400.347C-36.1204 400.141 -34.8338 399.958 -33.5624 399.776L-33.551 399.774L-33.5499 399.774C-29.6229 399.214 -25.8411 398.674 -22.0669 397.587C-17.0935 396.187 -12.0935 393.747 -7.82686 389.32C-4.30685 385.613 -1.04018 381.92 2.0398 378.093C2.69108 377.213 3.35032 376.34 4.00907 375.468L4.00971 375.467L4.01035 375.466C6.30476 372.428 8.5933 369.397 10.5198 366.093C15.6265 357.76 19.5732 348.173 20.1598 337.387C20.6531 331.147 20.2931 325.04 19.9331 319L19.3198 314.507C19.2491 314.041 19.1914 313.573 19.1337 313.105V313.105C19.0064 312.072 18.8792 311.04 18.6131 310.04C18.4248 309.224 18.2529 308.403 18.0809 307.582C17.6318 305.437 17.1822 303.29 16.4398 301.227C12.9465 289.653 6.90647 278.36 -2.38686 269.613C-2.81728 269.233 -3.23098 268.876 -3.62249 268.539L-3.62771 268.534L-3.63009 268.532C-6.45943 266.093 -8.12047 264.662 -6.49352 262.613C-5.1574 260.921 -2.43679 263.345 0.416543 265.888L0.419931 265.891L0.52897 265.988C0.628 266.077 0.727182 266.165 0.826455 266.253C6.9998 272.373 12.6265 278.84 17.2532 286.133C21.7731 293.453 25.5198 301.4 28.1198 310.107C31.1998 320.76 32.7198 332.4 31.6932 344.107C30.7065 355.787 27.0931 367.467 20.9598 377.307C13.6131 389.2 3.66648 397.747 -7.46685 403.733C-13.0135 406.733 -18.9602 409 -25.0135 410.72C-31.1069 412.4 -37.3469 413.627 -43.9735 414.467C-56.3202 416.107 -69.3868 414.027 -80.8802 409.107C-92.4402 404.253 -102.534 396.867 -110.8 388.493C-117.667 381.533 -123.28 374.36 -127.4 366.24C-131.48 358.08 -133.694 349.28 -134.574 339.747C-135.347 330.067 -134.814 320.187 -132.574 310.547C-130.307 300.907 -126.44 291.547 -120.467 283.213C-114.16 274.48 -106.774 266.64 -98.3469 260.253C-89.9602 253.867 -80.4535 248.987 -70.4535 246.213C-60.4668 243.44 -49.9602 242.64 -39.7602 244.32C-34.6669 245.16 -29.6535 246.613 -24.9335 248.68C-20.2135 250.733 -15.7602 253.307 -11.5469 256.2C-11.3709 256.321 -11.1977 256.44 -11.0275 256.556Z" fill="#F8F3E9"></path><path fill-rule="evenodd" clip-rule="evenodd" d="M1363 129.244L1364.96 131.107C1365.1 131.405 1365.02 131.932 1364.52 132.516L1365.1 132.154C1366.06 133.308 1368.31 133.195 1369 132.337C1367.27 133.396 1364.65 132.398 1365.3 131.125C1365.54 130.815 1367.44 129.39 1367.26 129.348C1365.97 128.983 1364.49 128.839 1363 129.244V129.244ZM1315.33 160.97C1316.27 167.945 1317.78 173.044 1313.35 179.764C1311.97 181.858 1314.9 184.408 1318.21 188.959C1320.29 191.835 1321.79 193.98 1323.08 195.506C1324.72 197.431 1329.03 197.098 1332.66 196.672C1333.34 196.595 1332.93 194.766 1332.12 193.817C1330.01 191.359 1328.1 194.739 1326.45 192.618C1322.67 187.742 1320.33 182.034 1322 176.4C1323.02 172.946 1328.96 165.717 1330.08 155.118C1327.09 153.455 1322.92 147.119 1321 151.54C1319.62 154.714 1317.76 158.2 1315.33 160.97V160.97ZM1368.85 127.043C1368.11 127.702 1367.94 128.57 1368.09 128.934C1368.58 130.135 1370 131.317 1368.24 133C1369.67 131.053 1367.13 130.209 1367 128.654C1366.96 128.103 1367.39 127.114 1368.14 126.318C1368.63 125.792 1369.26 125.335 1369.97 125.145C1371.51 124.753 1372.39 125.276 1373 125.319C1371.84 127.444 1370.13 126.529 1368.85 127.043V127.043ZM1362.66 132.589C1342.89 141.802 1320.29 118.992 1303.03 132.37C1292.86 140.255 1296.21 163.537 1278.91 162.682C1274.09 162.682 1266.47 158.568 1264.01 154.534C1261.48 150.378 1258.88 163.923 1272.81 167.256C1289.64 171.294 1298.71 161.487 1302.22 140.937C1302.04 146.701 1300.36 150.369 1300.19 152.535C1302.3 160.655 1295.18 173.269 1290.16 175.308C1291.05 182.503 1289.39 196.288 1294.38 196.861C1301 197.623 1302.09 195.599 1297.95 194.722C1295.67 194.692 1294.85 187.766 1296.16 184.135C1298.24 178.332 1301.88 175.253 1306.06 170.988C1309.2 167.775 1314.52 161.532 1320.03 150.89C1325.78 139.733 1326.73 165.809 1363.85 161.751C1363.6 159.081 1363.7 155.113 1364.55 153.029C1364.55 164.102 1367.61 181.305 1367.6 193.715C1367.61 199.033 1366.84 204.397 1377.39 200.865C1377.43 200.805 1376.9 196.819 1373.36 197.183C1372.1 193.697 1372.64 187.503 1372.58 184.757C1372.39 175.608 1371.13 163.307 1376.54 158.42C1373.86 164.629 1372.85 169.944 1372.85 176.84C1374.98 166.207 1381.12 158.508 1381.72 155.392C1383.66 137.533 1379.54 135.835 1380.37 125.348C1382.01 124.701 1386.3 121.786 1384.62 120.075C1384.16 119.638 1380.26 119.969 1378.53 122.502C1378.51 118.037 1366.99 117.233 1362.99 123.7C1362.72 124.632 1364.24 125.727 1363.77 126.94C1363.16 128.551 1362.44 129.176 1362.57 130.113C1363.88 139.69 1373.98 132.161 1372.92 132.995C1366.42 138.073 1363.89 135.164 1362.66 132.589" fill="#EAE7E0"></path></svg>