<svg version="1.1" id="Layer_1" xmlns="http://www.w3.org/2000/svg" x="0" y="0" viewBox="0 0 123 81" xml:space="preserve"><path fill="#fff" d="M88.2 40.9c.2.2.4.3.7.4.2.1.4.4.6.5.3.1.5.2.7.3.2.1.5.3.7.5.2.2.4.3.6.5.2.2.5.3.6.5.2.2.4.4.5.6.2.2.5.3.7.5.2.2.4.5.6.6.2.1.5.2.7.3.3.1.5.2.7.3.3.1.5.1.5-.2-.1-.1-.4-.3-.6-.5l-.6-.6c-.2-.2-.4-.3-.6-.5-.2-.2-.3-.4-.6-.6-.2-.2-.4-.4-.6-.5-.2-.2-.4-.4-.6-.5-.2-.2-.4-.3-.6-.5-.2-.2-.4-.3-.6-.5l-.6-.6-.6-.6c-.2-.2-.3-.4-.5-.6l-.6-.6c-.2-.2-.4-.5-.5-.7-.2-.3-.3-.5-.3-.7-.2.1-.3.3-.5.5-.1.2-.2.5-.2.7 0 .2.1.5.2.7.1.2.1.5.3.7.1.2.3.4.5.6zm-19.5 5c.2 0 .5 0 .8-.1.2-.1.5-.1.7-.3.2-.1.4-.3.6-.5.2-.2.3-.4.5-.6.1-.2.3-.4.5-.6.1-.2.3-.5.4-.7.2-.2.3-.5.5-.7.2-.2.3-.5.5-.6.2-.2.5-.3.7-.5.2-.2.3-.4.5-.6.2-.2.4-.4.6-.5.2-.2.4-.4.5-.6.1-.2.3-.4.4-.6.2-.2.3-.5.4-.6.1-.3.1-.4-.2-.5l-.6.6-.6.6-.6.6c-.2.2-.4.3-.6.5-.2.2-.4.3-.6.5l-.6.6c-.2.2-.3.4-.5.6l-.6.6c-.2.2-.4.3-.6.5l-.6.6c-.2.2-.4.4-.6.5-.2.2-.5.3-.7.4-.2.2-.5.3-.7.4-.3.2-.6.3-.8.3.1.2.4.5.6.6.1.2.4.1.7.1zM48.8 33c.2 0 .5-.1.8-.2.2-.1.4-.3.7-.5.2-.2.4-.4.5-.6.1-.3.3-.5.4-.7l.6-.6c.2-.2.5-.4.6-.6.3-.2.4-.5.5-.6.1-.2.3-.4.4-.5.2-.3.2-.5-.1-.5-.1.1-.4.3-.6.6l-.6.6-.6.6c-.2.2-.3.5-.5.7l-.6.6c-.2.2-.5.4-.7.5l-.6.6c-.3.2-.7.3-.8.3 0 .1.3.3.6.3zm-15.6 3c.2-.2.4-.4.6-.5.2-.2.4-.3.6-.5.2-.2.5-.3.7-.5l.6-.6c.2-.2.5-.3.6-.5.2-.2.4-.4.5-.6.2-.2.3-.5.4-.7.2-.2.3-.5.4-.7-.1 0-.4.1-.8.4-.2.1-.4.3-.6.5-.2.1-.4.3-.7.4-.2.1-.5.3-.7.4-.2.1-.4.4-.6.5-.2.1-.5.2-.8.3-.3.1-.5.3-.7.4-.2.1-.4.3-.7.5-.2.1-.4.3-.6.5-.2.2-.4.3-.7.5-.2.2-.4.3-.6.5-.2.2-.4.4-.6.5-.2.2-.4.4-.6.5l-.6.6c-.2.2-.5.3-.7.4-.2.2-.3.4-.5.6-.2.2-.5.3-.7.4-.2.2-.3.4-.5.6-.2.2-.5.2-.7.4-.2.2-.5.3-.7.4-.3.2-.5.3-.7.4.2.2.4 0 .6.1.2.1.5.1.7.1.2-.1.5-.2.7-.3.2-.1.5-.1.7-.3.2-.2.4-.3.6-.4.2-.2.5-.3.7-.4.2-.1.4-.3.7-.5.2-.1.5-.3.7-.5.2-.2.5-.3.7-.5.3-.2.5-.3.7-.5.3-.2.5-.4.7-.6l.6-.6c.2-.1.4-.3.6-.5.3.2.5 0 .7-.2zm89.8 3.7c-.6-.4-2.1 0-1.8-.6.6-1.5-.6-1.9-1.1-2.6 0 0 0-.1.1-.1.3-.4.7-.5 1-.7-.2.1-.5 0-.8-.1-.2-.2-1.1-.3-.2-.7.3-.1.7 0 .9-.1-.4-.1-.8-.1-1.1-.4.4.1.8 0 1.2-.3 0-.5-.4-.3-.7-.4-.2 0-.5.1-.7.1.1-.5 1.2-.5.7-1.3-1.1.2-2-.4-2.2-1.2-.2-.8 1-.6 1.5-1.1 0 0 0-.1.1-.2-.2-.2.9-.6-.1-.7-.3 0-.6-.1-1.3-.2 1.8-.8 1.8-2.2 1.9-3.6-.7.7-1.3.5-1.6-.3-.2-.1-.4 0-.4-.3 0-.6 1-.5.7-1.3-.3-.1-.6 0-.9.1.1.5.3.9 0 1.4-.3-.5-.9-1-.6-1.6l-.2-.2c.1-.7-.7-1.4 0-2.1 0-.2.1-.4.1-.6-.7-.3-.6-.8-.5-1.2-.1 0-.1 0-.2-.1 0 0 0-.3.1-.5 0-.1-.1-.2-.1-.3-.2 0-.3 0-.4-.3-.1-.2 0-.4.2-.6-.1-.3-.1-.7-.1-1-.2-.1-.3-.2-.4-.3-.1 0-.1 0-.2.1 0-.3-.2-.8.2-.9-.1-.3-.2-.6-.2-.8.1-.2.1-.4-.1-.4-.3-.2-.5.1-.7.3-.4.6-.1 1.4-.3 2.1-.3 1.1-.5 2.3-1 3.2-.9 1.5-1.1 1.8.4 2.7.1.5-.3.6-.6.8-.3.1-.7.1-.5.6-.3.4-.9.7-.6 1.3.2.5-.3.2-.4.4l-.3.3c-.4-.5-.9-.3-1.4-.1.5 1 1.4 1.5 2.1 2.3-.2.8-1.1.7-1.4.5-.9-.5-1.4.2-1.5.6-.1.7.7 1.1 1.2 1.1.8 0 1.2.3 1.8 1.1h-3.1c.7.9 1.7 1 2.1 1.8-.5.3-.8-.5-1.3-.1.7 1 .7 1.3.4 1.2-.3-.1-.5-.1-.6-.1.1 0 .1-.1.2-.2 0-.5-.4-.3-.7-.4-.2 0-.5.1-.7.1.1-.5 1.2-.5.7-1.3-1.1.2-2-.4-2.2-1.2-.2-.8 1-.6 1.5-1.1 0 0 0-.1.1-.2-.2-.2.9-.6-.1-.7-.3 0-.6-.1-1.3-.2 1.8-.8 1.8-2.2 1.9-3.6-.7.7-1.3.5-1.6-.3-.2-.1-.4 0-.4-.3 0-.6 1-.5.7-1.3-.3-.1-.6 0-.9.1.1.5.3.9 0 1.4-.3-.5-.9-1-.6-1.6l-.2-.2c.1-.7-.7-1.4 0-2.1 0-.2.1-.4.1-.6-.7-.3-.6-.8-.5-1.2-.1 0-.1 0-.2-.1 0 0 0-.3.1-.5 0-.1-.1-.2-.1-.3-.2 0-.3 0-.4-.3-.1-.2 0-.4.2-.6-.1-.3-.1-.7-.1-1-.2-.1-.3-.2-.4-.3-.1 0-.1 0-.2.1 0-.3-.2-.8.2-.9-.1-.3-.2-.6-.2-.8.1-.2.1-.4-.1-.4-.3-.2-.5.1-.7.3-.4.6-.1 1.4-.3 2.1-.3 1.1-.5 2.3-1 3.2-.9 1.5-1.1 1.8.4 2.7.1.5-.3.6-.6.8-.3.1-.7.1-.5.6-.3.4-.9.7-.6 1.3.2.5-.3.2-.4.4l-.3.3c-.4-.5-.9-.3-1.4-.1.5 1 1.4 1.5 2.1 2.3-.2.8-1.1.7-1.4.5-.9-.5-1.4.2-1.5.6-.1.7.7 1.1 1.2 1.1.8 0 1.2.3 1.8 1.1h-3.1c.7.9 1.7 1 2.1 1.8-.5.3-.8-.5-1.3-.1.7 1 .7 1.3.4 1.2-1.6-.3-.7.4-.4.8.3.4.5.7.5 1-.1-.1-.2-.2-.4-.3-.2-.2-.5-.3-.7-.5-.2-.2-.5-.2-.8-.4-.2-.2-.5-.3-.7-.5l-.6-.6c-.2-.2-.5-.2-.8-.4l-.6-.6c-.2-.2-.5-.3-.7-.5-.3-.2-.4-.5-.5-.7-.1-.2-.3-.4-.5-.6-.2-.2-.3-.4-.5-.6-.2-.2-.3-.4-.5-.6-.2-.2-.3-.4-.5-.6-.2-.2-.3-.4-.5-.6-.2-.2-.5-.3-.7-.5-.2-.2-.3-.5-.5-.7l-.6-.6c-.2-.2-.5-.3-.7-.5l-.6-.6-.6-.6c-.2-.2-.5-.3-.7-.4-.3-.2-.6-.4-.7-.4-.2-.1-.5 0-.8 0h-.4c.1-.1.2-.2.3-.2.2-.3.4-.6.5-.8.2-.3.2-.6.3-.9l.3-.9c.1-.3.1-.6.2-.9 0-.3.2-.6.2-1 0-.3-.1-.6-.2-1 0-.3.1-.7 0-1-.1-.3-.3-.6-.4-.9-.1-.3-.3-.6-.4-.9-.2-.3-.4-.5-.6-.8-.2-.3-.3-.6-.5-.8-.2-.2-.4-.5-.7-.7-.3-.2-.6-.3-.9-.4-.3-.2-.6-.3-.9-.4-.3-.1-.6-.2-.9-.2-.3-.1-.6-.3-.9-.4h-1c-.3 0-.7 0-1 .1-.3 0-.6.2-.9.3l-.9.3c-.3.1-.7.2-.9.3-.3.2-.6.3-.8.5-.3.2-.4.5-.7.7-.2.2-.4.5-.6.7-.2.3-.4.5-.5.8-.2.3-.5.5-.6.8-.1.3-.1.7-.2 1-.1.3-.2.6-.2 1 0 .3.1.7.1 1v.2c-.1 0-.2-.1-.3-.1-.2-.1-.4-.4-.7-.5-.2-.1-.5-.3-.7-.4-.2-.1-.5-.2-.7-.4-.2-.1-.4-.3-.7-.4-.2-.1-.5-.2-.7-.4-.2-.1-.5-.3-.7-.4-.2-.1-.5-.3-.7-.4-.2-.1-.5-.2-.8-.4l-.6-.6c-.2-.2-.5-.3-.7-.4-.2-.2-.4-.3-.7-.5-.2-.2-.4-.3-.6-.5l-.6-.6c-.2-.2-.4-.4-.6-.5-.2-.2-.5-.3-.7-.4-.3-.2-.6-.2-.8-.3-.3-.1-.5 0-.7.2-.2.2-.4.3-.6.6-.2.2-.2.5-.4.8-.2.2-.4.4-.5.7-.2.2-.3.5-.5.7-.2.3-.4.5-.6.6-.2.1-.3.3-.5.6-.1.2-.3.4-.4.7-.1.2-.3.4-.4.7-.1.2-.4.4-.5.7-.1.2-.2.5-.4.7-.1.2-.2.5-.4.7-.1.2-.3.5-.4.7-.2.2-.3.5-.4.7l-.6.6c-.2.2-.3.5-.5.7l-.6.6c-.2.2-.5.3-.7.5-.2.2-.5.3-.7.4-.3.1-.6.2-.8.2-.3 0-.6 0-.8-.1-.3-.1-.4-.3-.6-.5-.2-.2-.3-.4-.4-.7-.1-.2-.3-.4-.5-.7-.1-.2-.2-.5-.4-.7-.1-.2-.3-.4-.5-.6-.2-.2-.3-.4-.6-.6-.2-.2-.5-.3-.7-.4-.3-.1-.5 0-.8-.1-.3 0-.5-.2-.8-.2-.3 0-.5.1-.8.2-.3.1-.5.1-.7.2-.2.1-.4.3-.6.5-.2.2-.4.3-.6.5l-.6.6c-.2.2-.5.3-.6.5l-.6.6c-.2.2-.4.5-.6.6l-.6.6c-.2.2-.5.3-.7.5-.2.2-.5.4-.7.5-.3.2-.6.1-.8.2-.2 0-.4.3-.7.4-.2.1-.4.3-.7.4-.2.1-.4.3-.7.5-.2.2-.5.3-.7.4-.2.2-.4.4-.6.5-.2.2-.4.3-.6.5-.2.2-.4.3-.6.5-.2.2-.4.4-.6.5l-.6.6c-.2.2-.4.4-.6.5-.2.2-.5.3-.7.5-.2.2-.5.3-.7.5-.2.2-.3.5-.5.7l-.6.6-.6.6-.6.6-.6.6c-.2.2-.4.4-.5.6-.2.2-.3.5-.5.7v.1c-.1 0-.3-.1-.4-.1-.2-.2-1.1-.3-.2-.7.3-.1.7 0 .9-.1-.4-.1-.8-.1-1.1-.4.4.1.8 0 1.2-.3 0-.5-.4-.3-.7-.4-.2 0-.5.1-.7.1.1-.5 1.2-.5.7-1.3-1.1.2-2-.4-2.2-1.2-.2-.8 1-.6 1.5-1.1 0 0 0-.1.1-.2-.2-.2.9-.6-.1-.7-.3 0-.6-.1-1.3-.2 1.8-.8 1.8-2.2 1.9-3.6-.7.7-1.3.5-1.6-.3-.2-.1-.4 0-.4-.3 0-.6 1-.5.7-1.3-.3-.1-.6 0-.9.1.1.5.3.9 0 1.4-.3-.5-.9-1-.6-1.6l-.2-.2c.1-.7-.7-1.4 0-2.1 0-.2.1-.4.1-.6-.7-.3-.6-.8-.5-1.2-.1 0-.1 0-.2-.1 0 0 0-.3.1-.5 0-.1-.1-.2-.1-.3-.2 0-.3 0-.4-.3-.1-.2 0-.4.2-.6-.1-.3-.1-.7-.1-1-.2-.1-.3-.2-.4-.3-.1 0-.1 0-.2.1 0-.3-.2-.8.2-.9-.1-.3-.2-.6-.2-.8.1-.2.1-.4-.1-.4-.3-.2-.5.1-.7.3-.4.6-.1 1.4-.3 2.1-.3 1.1-.5 2.3-1 3.2-.9 1.5-1.1 1.8.4 2.7.1.5-.3.6-.6.8-.3.1-.7.1-.5.6-.3.4-.9.7-.6 1.3.2.5-.3.2-.4.4l-.3.3c-.4-.5-.9-.3-1.4-.1.5 1 1.4 1.5 2.1 2.3-.2.8-1.1.7-1.4.5-.9-.5-1.4.2-1.5.6-.1.7.7 1.1 1.2 1.1.8 0 1.2.3 1.8 1.1h-3.1c.7.9 1.7 1 2.1 1.8-.5.3-.8-.5-1.3-.1.7 1 .7 1.3.4 1.2-.3-.1-.5-.1-.6-.1.1 0 .1-.1.2-.2 0-.5-.4-.3-.7-.4-.2 0-.5.1-.7.1.1-.5 1.2-.5.7-1.3-1.1.2-2-.4-2.2-1.2-.2-.8 1-.6 1.5-1.1 0 0 0-.1.1-.2-.2-.2.9-.6-.1-.7-.3 0-.6-.1-1.3-.2 1.8-.8 1.8-2.2 1.9-3.6-.7.7-1.3.5-1.6-.3-.2-.1-.4 0-.4-.3 0-.6 1-.5.7-1.3-.3-.1-.6 0-.9.1.1.5.3.9 0 1.4-.3-.5-.9-1-.6-1.6l-.2-.2c.1-.7-.7-1.4 0-2.1 0-.2.1-.4.1-.6-.7-.3-.6-.8-.5-1.2-.1 0-.1 0-.2-.1 0 0 0-.3.1-.5 0-.1-.1-.2-.1-.3-.2 0-.3 0-.4-.3-.1-.2 0-.4.2-.6-.1-.3-.1-.7-.1-1-.2-.1-.3-.2-.4-.3-.1 0-.1 0-.2.1 0-.3-.2-.8.2-.9-.1-.3-.2-.6-.2-.8.1-.2.1-.4-.1-.4-.3-.2-.5.1-.7.3-.4.6-.1 1.4-.3 2.1-.3 1.1-.5 2.3-1 3.2-.9 1.5-1.1 1.8.4 2.7.1.5-.3.6-.6.8-.3.1-.7.1-.5.6-.3.4-.9.7-.6 1.3.2.5-.3.2-.4.4l-.3.3c-.4-.5-.9-.3-1.4-.1.5 1 1.4 1.5 2.1 2.3-.2.8-1.1.7-1.4.5-.9-.5-1.4.2-1.5.6-.1.7.7 1.1 1.2 1.1.8 0 1.2.3 1.8 1.1H1.7c.7.9 1.7 1 2.1 1.8-.5.3-.8-.5-1.3-.1.7 1 .7 1.3.4 1.2-1.6-.3-.7.4-.4.8 1 1.2.7 1.8-.9 1.9-.1 0-.1.2-.2.3.1.5.9.1 1 .8-.4.2-.8.5-1.2.7-.4.2-1-.2-1.4.2.5 1 1.6.8 2.2 1.2.4.1.2.4.3.7.7.5 1.4 0 2.1 0 1.6-.2 2.7.8 2.6 2.3.2 0 0 1.4 0 2.5 0 .6.2 1.1.5 1.2-.3.1-.5.2-.8.3h.8c.3 0 .5-.1.8-.2.3-.1.5-.1.8-.2.3-.1.5-.2.8-.3.2-.1.5-.2.7-.4.2-.1.5-.3.7-.4.2-.2.4-.3.6-.5.2-.2.4-.3.6-.5.2-.2.5-.3.7-.4.2-.2.4-.4.6-.5.2-.2.5-.3.7-.4.2-.1.5-.3.7-.4.2-.1.5-.2.7-.3.2-.1.5-.3.7-.4.2-.1.5-.2.8-.3.2-.1.5-.3.7-.4.2-.1.5-.2.7-.4.2-.1.5-.2.8-.3.2-.1.5-.3.7-.4.2-.1.5-.2.7-.3.2-.1.4-.3.7-.5.3-.1.6-.1.8-.2.3-.1.5-.3.7-.4.2-.1.4-.3.7-.5.2-.1.5-.2.7-.4l.6-.6c.2-.2.5-.3.7-.5.2-.2.4-.4.5-.6.2-.2.3-.5.5-.7l.6-.6.6-.6.6-.6c.2-.2.3-.5.5-.7l.6-.6.6-.6.6-.6c.2-.2.4-.3.6-.5.2-.2.4-.3.6-.5l.6-.6.6-.6c.2-.2.5-.3.7-.4.2-.2.3-.4.6-.6.2-.2.4-.4.6-.5.2-.2.4-.3.6-.5.2-.2.4-.4.6-.5.2-.2.5-.3.7-.4.2-.2.4-.4.6-.5l.6-.6c.2-.2.4-.3.7-.5l.6-.6c.2-.2.5-.3.7-.4l.6-.6c.2-.2.5-.3.7-.5.3-.2.6-.2.8-.3.3-.2.6-.4.7-.4.3 0 .5.1.8.2.3 0 .6.1.7.2.2.2.2.4 0 .7-.1.1-.2.4-.5.7-.2.1-.4.3-.7.5-.2.1-.5.3-.7.4-.2.1-.5.2-.7.4-.2.1-.5.3-.7.5-.2.1-.5.3-.7.4-.2.2-.5.3-.7.4-.2.2-.4.4-.6.5-.2.2-.6.2-.8.4-.3.2-.4.4-.6.5.3-.1.5-.1.8-.1.3-.1.5-.3.7-.4.3-.1.5-.2.7-.3.3-.1.5-.2.7-.3.3-.1.5-.1.8-.3.3-.1.5-.2.7-.3.3-.1.4-.4.6-.5.3-.2.5-.3.6-.4.1-.1.4-.3.8-.4.2-.1.5-.1.8-.2.3 0 .6 0 .8.1.3.1.5.1.7.4.2.2 0 .5-.2.7-.2.2-.4.3-.6.5-.2.1-.5.1-.8.3-.2.1-.5.3-.7.4-.3.1-.5.2-.8.2-.3.1-.6.2-.8.2-.1 0-.3.2-.6.6l-.6.6c-.2.2-.3.4-.5.7-.2.2-.3.4-.5.6-.2.2-.3.4-.5.6-.2.2-.3.4-.5.7-.2.2-.3.4-.5.6-.2.2-.3.5-.4.7-.2.2-.4.3-.6.6-.2.2-.3.5-.4.7-.2.2-.4.4-.5.6-.2.2-.3.4-.5.6-.2.2-.3.5-.5.7-.2.2-.4.4-.5.6-.2.2-.3.4-.5.6l-.6.6c-.2.2-.3.5-.5.7-.2.2-.4.3-.6.5-.2.2-.4.3-.6.5-.2.2-.5.4-.7.5.3.1.5.1.8.1.3 0 .5 0 .8-.1.3 0 .5-.1.8-.2.2-.1.5-.2.7-.4.2-.1.5-.2.7-.4.2-.2.4-.3.6-.5.2-.2.4-.4.6-.5l.6-.6c.2-.2.5-.3.6-.5.2-.2.4-.3.6-.5.3-.2.4-.5.6-.5.3-.1.5.1.6.5v.8c0 .2-.2.5-.3.7-.1.2-.1.5-.2.7-.1.3-.2.5-.2.7-.1.3-.1.5-.2.7-.1.3-.1.6-.2.7-.1.3-.2.5-.2.8 0 .3.1.5.4.6.2.1.4.2.8.2.2 0 .5.1.8.1.5 0 .8 0 .9-.1.1-.1-.1-.4-.3-.8-.1-.2-.1-.6-.1-.9 0-.3-.1-.6 0-.9.1-.2.3-.4.5-.7.2-.2.3-.4.4-.7.1-.2.3-.4.5-.7.1-.2.2-.5.4-.7.1-.2.3-.5.4-.7.1-.2.2-.5.3-.7.1-.2.3-.5.4-.7.1-.2.3-.5.4-.7.1-.2.3-.4.5-.7.1-.2.2-.5.4-.7l.6-.6c.2-.1.4-.3.7-.5l.6-.6.6-.6.6-.6c.2-.2.3-.5.5-.7.2-.2.5-.3.7-.5.2-.2.3-.5.5-.7l.6-.6.6-.6.6-.6c.2-.2.3-.5.5-.7l.6-.6c.2-.2.4-.5.6-.7.2-.2.5-.3.7-.5.2-.2.4-.5.6-.7l.6-.6c.2-.2.5-.3.7-.5.2-.2.4-.5.6-.7.2-.2.5-.3.7-.6.2-.2.2-.5.4-.8.1-.2.3-.4.4-.7.1-.2.2-.5.3-.7.1-.2.3-.4.4-.7.1-.2.3-.4.4-.7.1-.2.3-.4.4-.6.1-.2.2-.5.4-.7.2-.3.4-.4.5-.5.2.1.3.3.4.6v.8c0 .3 0 .5-.1.8-.1.3-.1.5-.2.8-.1.3-.2.5-.3.8-.1.3-.2.5-.3.7-.1.3-.2.5-.3.7-.2.3-.4.4-.6.5-.4.2-.5.4-.4.7 0 .2.1.5 0 .8-.1.2-.2.4-.5.7-.2.2-.3.4-.6.6-.2.1-.4.3-.6.5-.2.2-.5.3-.6.5-.2.2-.4.5-.5.7-.3.4-.3.5 0 .5s.5 0 .7-.1c.2-.1.4-.2.7-.3.2-.1.4-.2.7-.4.2-.2.3-.4.5-.6.2-.2.4-.3.6-.5.2-.2.3-.4.6-.6.2-.2.5-.2.7-.4.2-.2.4-.4.6-.5.2-.2.4-.3.6-.5l.6-.6c.4-.3.6-.4.7-.4.2 0 .7.1.8.4 0 .2-.1.5-.4.8-.2.2-.4.3-.7.5-.2.2-.5.3-.7.5l-.6.6c-.2.2-.5.3-.7.5-.2.2-.4.4-.7.6-.2.2-.5.3-.7.5-.2.3-.3.5-.4.8-.1.3-.2.5-.4.8-.2.2-.4.4-.5.7-.2.2-.3.5-.5.7-.2.2-.3.5-.3.8 0 .2-.2.4-.5.7-.2.2-.3.4-.6.6-.2.2-.5.2-.7.4l-.6.6-.6.6c-.2.2-.5.2-.7.4l-.6.6-.6.6c-.2.2-.5.3-.7.5l-.6.6-.6.6c-.2.2-.4.5-.5.7-.1.3-.2.6-.2.8.2-.2.4-.5.6-.6.2-.2.4-.3.7-.5.2-.2.5-.2.8-.4.2-.2.5-.3.7-.5l.6-.6c.2-.2.5-.3.7-.4.2-.1.5-.3.7-.4.2-.1.5-.2.8-.3.3-.1.5-.2.8-.3.3-.1.5-.2.8-.3.3-.1.5-.2.8-.3.3-.1.5-.2.8-.3.3-.1.5-.1.8-.2h1.8c.3 0 .7-.1.9 0 .4.1.5.4.5.6 0 .2-.1.4-.5.6-.3.2-.5.3-.8.4-.3.1-.5.3-.8.4-.2.1-.5.3-.8.5-.2.2-.3.5-.5.7-.2.2-.5.3-.6.6-.1.2-.3.5-.5.7l-.6.6c-.2.2-.4.3-.7.5-.2.1-.5.2-.8.4-.2.1-.5.3-.7.4-.2.1-.5.3-.7.4-.2.1-.5.2-.8.3-.2.1-.5.2-.8.4-.3.1-.4.4-.7.5-.3.1-.5.2-.8.3-.3.1-.5.3-.7.5-.2.1-.5.2-.8.3-.2.1-.5.2-.8.3-.3.1-.5.2-.8.4-.3.1-.5.2-.8.3-.3.1-.5.3-.7.4-.3.1-.5.2-.8.3-.3.1-.5.2-.8.3-.3.1-.5.3-.7.4-.3.1-.6.2-.8.3-.3.1-.6.2-.8.3.2.2.4.4.7.6.2.2.5.3.8.4.3.1.6.2.8.2.3.1.6.1.8.1.3 0 .6.1.9 0 .2-.1.5-.3.7-.5.2-.2.4-.3.6-.5.2-.1.4-.3.7-.4.2-.1.5-.3.7-.4.2-.1.4-.3.7-.4.2-.1.5-.3.7-.4.2-.1.5-.1.8-.2.3-.1.5-.2.7-.3.3-.1.5-.2.7-.3.3-.1.6 0 .8-.1.3-.1.5-.1.8-.2.3-.1.6-.1.8-.1.2 0 .5 0 .8.1.2.1.5.3.7.4.2.1.5.3.7.4.2.2.4.3.6.5.2.2.4.4.6.5.3.1.6.1.8 0 .1-.1.2-.4.4-.8.1-.2.3-.4.5-.7l.6-.6c.2-.2.4-.4.6-.7l.6-.6c.2-.2.3-.5.5-.7l.6-.6c.2-.2.4-.4.7-.6.2-.2.5-.3.7-.5l.6-.6c.3-.2.5-.3.8-.4.3-.1.6-.1.8-.2.2-.1.4-.3.7-.5.2-.1.4-.3.7-.5.2-.1.5-.2.8-.3.2-.2.4-.3.6-.5.2-.2.4-.3.6-.5.2-.2.4-.4.6-.5l.6-.6c.2-.2.4-.4.5-.6.2-.2.2-.5.4-.7.1-.2.3-.4.6-.6.2-.2.5-.3.7-.5.2-.2.5-.3.7-.4.2-.1.5-.3.7-.4.2-.1.5-.3.7-.5.2-.1.5-.2.8-.4.2-.1.5-.4.7-.5.3-.1.5-.2.8-.4h.1c-.1.1-.3.2-.4.4-.2.2-.3.4-.5.6-.2.2-.4.3-.7.5-.2.2-.3.5-.5.7-.2.2-.5.3-.7.5-.2.2-.3.5-.5.7-.2.2-.4.3-.6.5l-.6.6-.6.6c-.2.2-.3.4-.5.6l-.6.6-.6.6c-.2.2-.5.3-.7.5-.2.2-.3.4-.5.6-.2.2-.5.3-.7.5l-.6.6-.6.6-.6.6c-.2.2-.5.3-.7.5l-.6.6c-.2.2-.4.4-.6.5l-.6.6c-.2.2-.5.4-.7.5-.3.3-.6.4-.7.4h.8c.2 0 .5 0 .8-.1.2-.1.5-.2.7-.4.2-.1.4-.3.7-.5.2-.1.5-.2.8-.3.2-.1.4-.4.6-.5.2-.1.5-.3.7-.5.2-.2.4-.3.7-.5.2-.2.4-.3.7-.5.2-.2.5-.3.7-.5.2-.2.4-.4.6-.5l.6-.6c.2-.2.5-.3.7-.5.2-.2.4-.4.6-.5.2-.2.4-.3.6-.5.2-.2.3-.4.5-.6.2-.2.5-.3.7-.5.2-.2.4-.5.5-.6.2-.2.5-.4.6-.5.3-.3.5-.5.6-.5l.6-.6.6-.6c.2-.2.4-.3.6-.5l.6-.6.6-.6c.2-.2.5-.3.7-.5l.6-.6c.2-.2.4-.5.5-.6.3-.3.6-.4.7-.4 0 .3-.1.6-.2.8-.1.3-.2.5-.3.7-.1.3-.1.6-.3.8-.2.2-.4.4-.5.6l-.6.6c-.2.2-.5.3-.7.5-.2.2-.4.3-.6.5-.2.2-.5.3-.7.5-.2.2-.3.4-.5.6-.2.2-.5.3-.6.5-.2.2-.3.4-.5.6-.2.2-.3.4-.4.7.2 0 .4-.1.7-.2.2-.1.5-.2.7-.4.2-.1.4-.3.7-.5.2-.1.4-.3.7-.4.2-.2.5-.2.7-.4l.6-.6c.2-.2.4-.3.6-.5l.6-.6c.2-.2.4-.4.6-.5.3-.3.6-.5.6-.6.1.2 0 .5 0 .9 0 .2.1.5.1.8v.8c0 .3-.1.5-.2.8 0 .3 0 .6-.1.8 0 .3-.1.6-.2.8-.1.3 0 .6-.1.8-.1.3-.2.5-.3.8-.1.3-.1.6-.2.8-.1.3-.2.6-.4.8-.2.3-.4.5-.6.6-.3.2-.5.4-.7.6-.2.3-.3.6-.4.8-.1.3-.2.6-.2.9 0 .5.1.8.3.8.1 0 .4-.1.8-.3.2-.1.4-.4.6-.5.2-.2.4-.3.7-.5l.6-.6c.2-.2.5-.3.6-.5.2-.2.3-.5.4-.8.1-.2.2-.4.4-.7.1-.2.3-.4.4-.6.1-.2.3-.4.5-.6.2-.2.3-.4.5-.6.2-.2.3-.4.4-.6.2-.3.3-.5.3-.7v-.8c0-.2.1-.5.1-.8v-2.4c0-.3-.1-.6-.2-.8-.1-.3.1-.6.2-.8.1-.3.2-.6.5-.7.2-.1.5-.3.9-.3.2.1.3.4.4.6.1.2.3.4.4.7.1.2.1.5.2.7 0 .3 0 .5.1.8 0 .3.1.5.1.8 0 .3 0 .6.1.8.1.1.2.4.4.7.1.2.2.4.4.7.1.2.2.5.3.7.1.2.3.4.5.7.1.2.3.4.5.6.2.2.3.4.5.7.2.2.3.4.5.6.2.2.4.4.5.6.2.2.4.3.6.5.2.2.4.3.6.5.2.2.4.4.6.5.2.1.5.2.8.3.2.1.5.3.7.4.3.1.5.1.7.2-.1-.2-.2-.4-.3-.7l-.6-.6c-.2-.2-.4-.3-.6-.5-.2-.2-.3-.4-.5-.6l-.6-.6c-.3-.3-.6-.5-.6-.6 0-.3.3-.3.7-.4h.9c.2 0 .4.1.7.2.2.1.5.2.7.3.2.1.5.2.7.4.2.1.5.3.7.4.2.1.5.3.7.4.2.1.5.2.7.3.2.1.4.3.7.4.2.1.5.2.7.3.2.1.5.1.8.2.2.1.4.3.7.4.2.1.5.1.8.3.2.1.5.3.7.4.2.1.5.2.7.4.3.1.5.3.7.4.3.2.4.5.4.6 0 .2.2.5.4.6.2.2.4.3.7.4.2.1.4.3.6.5.2.2.3.4.2.7 0 .3.1.5.3.7.2.1.4.2.7.2.2 0 .5.1.8.1.2 0 .5.1.8.1.2 0 .5.2.8.2.3.1.6 0 .8.1.3.1.5.3.8.4.1 0 .2.1.4.1-.6.9-1.2 2-1.8 3.1-.6 1.2-1.3 2.4-1.9 3.7-.2-.2-.5-.3-.9-.4-.4-.1-.8-.1-1.3-.1-1 0-2.1.4-3.2 1.1-1.2.7-2.3 1.7-3.3 2.9l-.9 1.2c-.1.1-.2.2-.3.4-.5.8-1.1 1.4-1.8 1.7-.7.3-1.3.3-1.9.1.2-.6.3-1.1.4-1.7.1-.6.1-1.2.1-1.8 0-.5 0-.9-.1-1.4-.1-.5-.2-1-.5-1.4-.2-.4-.5-.8-.9-1-.4-.3-.9-.4-1.5-.4-.9 0-1.8.2-2.7.5-.9.3-1.7.8-2.5 1.4-.8.6-1.5 1.3-2.2 2.1-.4.5-.8 1-1.1 1.5-.1.1-.2.2-.2.4-.5.8-1.1 1.4-1.8 1.7-.7.3-1.3.3-1.9.1.2-.6.3-1.1.4-1.7.1-.6.1-1.2.1-1.8 0-.5 0-.9-.1-1.4-.1-.5-.2-1-.5-1.4-.2-.4-.5-.8-.9-1-.4-.3-.9-.4-1.5-.4-.9 0-1.8.2-2.7.5-.9.3-1.7.8-2.5 1.4-.8.6-1.5 1.3-2.2 2.1-.7.8-1.3 1.6-1.8 2.6-.5.9-.9 1.8-1.2 2.8-.3.9-.4 1.9-.4 2.8 0 .5.1 1.1.2 1.6.1.6.4 1.1.7 1.5.3.5.7.9 1.2 1.2.5.3 1.2.5 1.9.5 1.4 0 2.7-.5 4.1-1.4 1.3-.9 2.5-2.2 3.5-3.7-.3-.7-.7-1.2-1.2-1.5-.5-.4-1-.6-1.4-.8-.4.3-.7.6-1.1.8-.4.2-.7.3-1.1.3-.5 0-.9-.2-1.1-.6-.2-.4-.2-.9-.1-1.4.1-.6.3-1.2.6-1.9s.7-1.3 1.1-1.9c.4-.6.9-1.1 1.4-1.4.5-.4 1-.6 1.5-.6.6 0 .9.2 1.1.7.2.4.2 1 0 1.6-.3-.3-.6-.6-1-.6-.4-.1-.8 0-1.1.2-.3.2-.6.5-.7 1-.1.5-.1 1 .2 1.7.4.9 1 1.6 1.8 2 .8.4 1.7.5 2.6.4.8-.1 1.6-.4 2.4-.9-.1.2-.1.3-.2.5-.3.9-.4 1.9-.4 2.8 0 .5.1 1.1.2 1.6.1.6.4 1.1.7 1.5.3.5.7.9 1.2 1.2.5.3 1.2.5 1.9.5 1.4 0 2.7-.5 4.1-1.4 1.3-.9 2.5-2.2 3.5-3.7-.3-.7-.7-1.2-1.2-1.5-.5-.4-1-.6-1.4-.8-.4.3-.7.6-1.1.8-.4.2-.7.3-1.1.3-.5 0-.9-.2-1.1-.6-.2-.4-.2-.9-.1-1.4.1-.6.3-1.2.6-1.9s.7-1.3 1.1-1.9c.4-.6.9-1.1 1.4-1.4.5-.4 1-.6 1.5-.6.6 0 .9.2 1.1.7.2.4.2 1 0 1.6-.3-.3-.6-.6-1-.6-.4-.1-.8 0-1.1.2-.3.2-.6.5-.7 1-.1.5-.1 1 .2 1.7.4.9 1 1.6 1.8 2 .8.4 1.7.5 2.6.4.7-.1 1.5-.4 2.2-.8-.5 1.4-.8 2.8-.8 4.3 0 .3 0 .7.1 1.1.1.4.3.8.5 1.1.2.3.5.6.8.8.3.2.8.3 1.3.3s1-.1 1.6-.3c.5-.2 1-.5 1.5-.9s.9-.8 1.3-1.2c.4-.4.8-.9 1.1-1.3l.3-1.2c.1-.4.3-.7.4-1v.6c0 .7.1 1.5.2 2.1.2.7.4 1.3.7 1.8.3.5.8.9 1.3 1.2.5.3 1.1.5 1.9.5.6 0 1.2-.2 1.8-.5.6-.4 1.1-.8 1.7-1.4.5-.6 1-1.3 1.5-2 .5-.8.9-1.5 1.3-2.3.4-.8.8-1.5 1.1-2.3.3-.7.6-1.4.9-2 .1-.3.1-.5.1-.7 0-.2-.1-.3-.2-.4-.1-.1-.3-.1-.5 0s-.3.3-.5.5c-.9 1.7-1.8 3-2.5 3.9-.7.9-1.4 1.4-2.1 1.4-.6 0-1-.2-1.2-.7-.2-.5-.3-1.2-.2-2 .1-.8.2-1.8.5-2.9.3-1.1.6-2.2 1-3.3.4-1.1.8-2.3 1.2-3.5.4-1.2.8-2.2 1.2-3.2.1-.3.2-.5.3-.8l.1.1c.1 0 .2 0 .3-.1.3 0 .7-.1.8-.3-.2-.1-.3-.1-.5-.2 0-.1 0-.2.1-.4v-1.4c.1-.5.2-.9.2-1.1 0-.3-.1-.4-.2-.5v-.3c.1-1.4 1.1-1.9 2.4-1.2 1 .5 2.2.7 3.3.5.2 0 .4-.1.6-.2-2.3-.8.4-.8.1-1.8zm-3.7-13.1c.1.1.3.2.4.3-.4 0-.6.7-.9.3-.3-.3.2-.5.5-.6zm-11 0c.1.1.3.2.4.3-.4 0-.6.7-.9.3-.3-.3.1-.5.5-.6zm-85.7 0c.1.1.3.2.4.3-.4 0-.6.7-.9.3-.2-.3.2-.5.5-.6zm-11 0c.1.1.3.2.4.3-.4 0-.6.7-.9.3-.2-.3.2-.5.5-.6zm-5.5.8c-.3.6-.7-.1-1-.1l.4-.4c.3.1.9 0 .6.5zm.1-1.8c-.4-.3-1-.5-1-1.4.8.6 1.5.9 2.1 0 .9 1.5-1 .8-1.1 1.4zm6.9 8.8c0 .1.1.3.3.5-.3-.1-.7-.1-1-.4.3 0 .5-.1.7-.1zM8.2 16.3c-.1.7.3 1.5-.3 2.1-.2-.7-.2-1.4.3-2.1zM13 42.6c-.2.2-.4.4-.6.5-.2.2-.5.3-.7.4l-.6.6c-.2.2-.3.5-.5.7-.2.2-.5.3-.7.5-.2.2-.4.4-.5.6l-.6.6c-.2.2-.4.4-.6.5 0 0-.2.1-.3.1.1-.2.2-.4.3-.8.1-1-.2-2.6 0-2.9v-.3c.1-1.4 1.1-1.9 2.4-1.2.8.4 1.7.6 2.7.6-.2 0-.2 0-.3.1zm-.1-5.6c-.2-.2-.4-.3-.5-.5 0 0 0-.1.1-.1.3-.4.7-.5 1-.7-.2.1-.5 0-.8-.1-.2-.2-1.1-.3-.2-.7.2-.1.6 0 .9-.1l.2.2c1 1.3.7 1.9-.7 2zm2.1 4.1c-.3.1-.6.2-.8.3l-.2.2c-.1-.2-.1-.4 0-.5.4.1.9 0 1.3-.1-.1 0-.2.1-.3.1zm2.2-13.7c-.3.6-.7-.1-1-.1l.4-.4c.3.1.8 0 .6.5zm0-1.8c-.4-.3-1-.5-1-1.4.8.6 1.5.9 2.1 0 .9 1.5-.9.8-1.1 1.4zm1.7-7.2c-.2-.7-.2-1.4.3-2.1 0 .7.4 1.5-.3 2.1zm4.9 18c-.1.1-.1.2-.2.2l-.1-.1s0-.1.1-.1c.1-.2.3-.3.5-.4-.2.1-.3.3-.3.4zm60.5-12.5c-.2.2-.4.5-.6.7-.1.1-.3.2-.4.3h-.1c-.3.1-.6.1-.8.1-.1 0-.4.1-.6.2-.1-.1-.2-.1-.3-.2-.2-.1-.4-.3-.7-.4-.2-.1-.5-.3-.7-.4-.2-.1-.5-.2-.7-.3-.2-.1-.4-.3-.7-.4-.2-.1-.5-.2-.7-.3-.2-.1-.5-.2-.7-.3-.2-.1-.4-.4-.7-.5-.2-.1-.5-.2-.8-.3-.3-.1-.5-.3-.7-.4-.3-.1-.5-.2-.7-.3-.3-.2-.5-.3-.7-.4-.2-.1-.5-.2-.8-.3l-.2-.2v-.8c0-.3-.2-.7-.1-1 0-.3.1-.6.2-.9l.3-.9c.1-.3.3-.6.5-.8.2-.3.3-.6.5-.8.2-.2.5-.4.7-.7.2-.2.6-.3.8-.5.3-.2.5-.5.8-.6l.9-.3c.3-.1.6 0 1-.1h.9c.3 0 .7-.2 1-.2.3 0 .6.4.9.5l.9.3c.3.1.6.2.8.4.3.2.5.3.8.5.2.2.6.3.8.6.2.2.4.5.6.8.2.3.3.6.4.9.1.3.1.6.2.9.1.3.2.6.2.9 0 .3.2.6.2.9v1c0 .3-.1.6-.2.9-.1.3-.3.6-.5.8l-.3.9c-.2.3-.5.5-.7.7zm18.5 3.5c-.3.6-.7-.1-1-.1l.4-.4c.3.1.9 0 .6.5zm0-1.8c-.4-.3-1-.5-1-1.4.8.6 1.5.9 2.1 0 .9 1.5-.9.8-1.1 1.4zm1.7-7.2c-.2-.7-.2-1.4.3-2.1 0 .7.4 1.5-.3 2.1zm2.9 38.5c-.2.6-.5 1.2-.7 1.8-.3.4-.6.8-1 1.2-.4.4-.7.8-1.1 1.2-.4.4-.7.7-1.1.9-.4.2-.7.4-.9.4-.5 0-.8-.2-.8-.6-.1-.4 0-.8.3-1.4.2-.5.6-1.1 1-1.8s.9-1.3 1.4-1.8c.5-.5 1-1 1.5-1.4.5-.4 1-.6 1.4-.6.3 0 .5 0 .7.1-.2.8-.4 1.4-.7 2zm2.4-22.5c0 .1.1.3.3.5-.3-.1-.7-.1-1-.4.2 0 .5-.1.7-.1zm-.6.5c.2-.1.6 0 .9-.1l.2.2c1 1.2.7 1.8-.7 1.9-.2-.2-.4-.3-.5-.5 0 0 0-.1.1-.1.3-.4.7-.5 1-.7-.2.1-.5 0-.8-.1-.2-.1-1.1-.2-.2-.6zm5.7 8.6c-.2.1-.4.3-.6.6-.3.3-.6.8-1 1.3-.2-.1-.5-.3-.7-.4-.2-.2-.4-.4-.6-.5-.2-.2-.5-.3-.7-.4-.2-.2-.4-.4-.6-.5-.2-.2-.5-.3-.7-.5-.2-.2-.5-.2-.8-.4l-.2-.2c.5.1 1 .1 1.6 0 .2 0 .4-.1.6-.2-.5-.5-.5-.8-.4-1 .6.1 1.1-.1 1.7-.2 1.6-.2 2.7.8 2.6 2.3-.2-.1-.2 0-.2.1zm-2.1-16.2l.4-.4c.3.1.8 0 .6.5-.3.6-.6-.1-1-.1zm1-1.7c-.4-.3-1-.5-1-1.4.8.6 1.5.9 2.1 0 .9 1.5-.9.8-1.1 1.4zm1.8-7.2c-.2-.7-.2-1.4.3-2.1 0 .7.3 1.5-.3 2.1zm-88.3-6.3v.2c0 .1.1.1.1.2 0 0 0-.1.1-.2v-.6c0-.1 0-.1.1-.2 0-.1.1-.1.1-.2s.1-.1.1-.2v-.2c0-.1.1-.1.1-.2s.1-.1.2-.2h.8c.1 0 .1.1.2.1s.1 0 .2.1c.1 0 .1.1.2.1s.1.1.2.1.1.1.2.2c.1 0 .1.1.2.1 0 .1.1.1.1.2s.1.1.2.2c0 .1.1.1.1.2s.1.1.1.2c-.1.1-.1.1-.2.1-.1.1-.1.1-.1.2s0 .1.1.2c0 0 .1.1.2.1s.1 0 .2.1h1c.1 0 .1-.1.2-.1s.2 0 .2-.1c.1 0 .1-.1 0-.2 0-.1-.1-.1-.2-.2.1 0 0-.1 0-.1-.1 0-.2 0-.2-.1-.1 0-.1 0-.1-.1 0 0 .1-.1.2-.1 0 0 .1-.1.2-.1s.1-.1.2-.1.1 0 .2-.1c.1 0 .1-.1.2-.1h.2c.1 0 .1-.1.2-.1h.4c.1 0 .1-.1.2 0 .1 0 .1.1.2.1s.1.1.2.1.1.1.2.1.1.1.2.1.1.1.1.2c.1 0 .1.1.2.1 0 .1.1.1.1.2s.1.1.1.2.1.1.1.2.1.1.1.2c0-.1.1-.1.1-.2v-.4c0-.1-.1-.1-.1-.2v-.2c0-.1-.1-.1-.1-.2s-.1-.1-.1-.2-.1-.1-.1-.2c0 0-.1-.1-.2-.1s-.1-.1-.2-.1-.1-.1-.2-.1h-1.6c-.1 0-.1 0-.2.1h-.2c-.1 0-.1 0-.2.1-.1 0-.1.1-.2.1s-.1.1-.2.1-.1.1-.2.1-.1.1-.2.1c0 0 0-.1-.1-.2 0-.1-.1-.1-.1-.2s-.1-.1-.2-.1c0-.1-.1-.1-.1-.2s-.1-.1-.1-.2c-.1 0-.1-.1-.2-.1s-.1-.1-.1-.2c-.1 0-.1-.1-.2-.1s-.1-.1-.2-.1-.1 0-.2-.1h-.4c-.1 0-.1 0-.2.1H29c-.1 0-.1 0-.2.1-.1 0-.1.1-.2.1s-.1 0-.2.1c-.1 0-.1 0-.2.1-.1 0-.1.1-.2.1s-.1.1-.2.1c-.1.1-.1.1-.1.2V12c-.4-.1-.4 0-.4.1zm72.6-1.8v.1s0 .1.1.1V10s0-.1.1-.1c0 0 0-.1.1-.1v-.1l.1-.1.1-.1h.4s.1 0 .1.1c0 0 .1 0 .1.1 0 0 .1 0 .1.1 0 0 .1 0 .1.1l.1.1s.1 0 .1.1c0 0 0 .1.1.1l.1.1s0 .1.1.1l.1.1-.1.1-.1.1v.1l.1.1h.6s.1 0 .1-.1h.1v-.1l-.1-.1-.1-.1h-.1c-.1 0-.1 0 0-.1 0 0 .1 0 .1-.1l.1-.1.1-.1h.1l.1-.1h.5s.1 0 .1.1l.1.1s.1 0 .1.1c0 0 .1 0 .1.1l.1.1s.1 0 .1.1l.1.1.1.1s0 .1.1.1c0 0 0 .1.1.1v-.3s0-.1-.1-.1v-.1s0-.1-.1-.1l-.1-.1s0-.1-.1-.1l-.1-.1-.1-.1s-.1 0-.1-.1h-1.1s-.1 0-.1.1c0 0-.1 0-.1.1l-.1.1s-.1 0-.1.1v-.1l-.1-.1-.1-.1s0-.1-.1-.1l-.1-.1s-.1 0-.1-.1l-.1-.1-.1-.1s-.1 0-.1-.1h-.6s-.1 0-.1.1h-.2l-.1.1s-.1 0-.1.1c0 0 0 .1-.1.1v.6l-.1-.1zM83.7 3.2v.1s0 .1.1.1v-.5s0-.1.1-.1c0 0 0-.1.1-.1v-.1l.1-.1.1-.1h.4s.1 0 .1.1c0 0 .1 0 .1.1 0 0 .1 0 .1.1 0 0 .1 0 .1.1l.1.1s.1 0 .1.1c0 0 0 .1.1.1l.1.1s0 .1.1.1l.1.1-.1.1-.1.1v.1l.1.1h.6s.1 0 .1-.1h.1v-.1l-.1-.1-.1-.1H86c-.1 0-.1 0 0-.1 0 0 .1 0 .1-.1l.1-.1.1-.1h.1l.1-.1h.5s.1 0 .1.1l.1.1s.1 0 .1.1c0 0 .1 0 .1.1l.1.1s.1 0 .1.1l.1.1.1.1s0 .1.1.1c0 0 0 .1.1.1v-.3s0-.1-.1-.1v-.1s0-.1-.1-.1l-.1-.1s0-.1-.1-.1l-.1-.1-.1-.1s-.1 0-.1-.1h-1.1s-.1 0-.1.1c0 0-.1 0-.1.1l-.1.1s-.1 0-.1.1v-.1l-.1-.1-.1-.1s0-.1-.1-.1l-.1-.1s-.1 0-.1-.1l-.1-.1-.1-.1s-.1 0-.1-.1h-.6s-.1 0-.1.1h-.2c-.1-.4-.1-.4-.2-.3 0 0-.1 0-.1.1 0 0 0 .1-.1.1v.9zM59.9 1.4v.1s0 .1.1.1v-.5s0-.1.1-.1c0 0 0-.1.1-.1V.8l.1-.1.1-.1h.4s.1 0 .1.1c0 0 .1 0 .1.1 0 0 .1 0 .1.1 0 0 .1 0 .1.1l.1.1s.1 0 .1.1c0 0 0 .1.1.1l.1.1s0 .1.1.1l.1.1-.1.1-.1.1v.1l.1.1h.6s.1 0 .1-.1h.1v-.1l-.1-.1-.1-.1h-.1c-.1 0-.1 0 0-.1 0 0 .1 0 .1-.1l.1-.1.1-.1.5-.2.1-.1h.5s.1 0 .1.1l.1.1s.1 0 .1.1c0 0 .1 0 .1.1l.1.1s.1 0 .1.1l.1.1.1.1s0 .1.1.1c0 0 0 .1.1.1v-.3s0-.1-.1-.1v-.1s0-.1-.1-.1l-.1-.1s0-.1-.1-.1l-.1-.1-.1-.1s-.1 0-.1-.1h-1.1s-.1 0-.1.1c0 0-.1 0-.1.1l-.1.1s-.1 0-.1.1v-.1l-.1-.1-.1-.1s0-.1-.1-.1L62 .7s-.1 0-.1-.1l-.1-.1-.1-.1s-.1 0-.1-.1H61s-.1 0-.1.1h-.2l-.1.1s-.1 0-.1.1c0 0 0 .1-.1.1v.6c-.5 0-.5.1-.5.1zM25 55.7c.2-.9.3-1.6.3-2 0-.2 0-.4-.1-.6-.1-.2-.2-.3-.4-.3-.3 0-.6.2-1 .7-.4.5-.8 1.1-1.2 1.8-.4.7-.8 1.5-1.3 2.3-.4.8-.9 1.6-1.3 2.3-.4.7-.9 1.3-1.3 1.8s-.8.7-1.1.7c-.3 0-.6-.1-.7-.4-.1-.3-.2-.6-.2-.9 0-.6.1-1.2.2-1.8.1-.6.2-1 .3-1.5.1-.4.2-.8.3-1.1.1-.3.2-.5.2-.7 0-.6-.3-.9-.9-.9-.3 0-.6.2-.9.5-.3.4-.7.8-1 1.3-.4.5-.7 1.1-1 1.7-.4.6-.7 1.2-1.1 1.7-.4.5-.7 1-1.1 1.3-.4.4-.7.5-1.1.5-.4 0-.6-.1-.7-.4-.1-.3-.2-.6-.2-.9 0-.7.1-1.4.4-2.2.3-.8.5-1.5.9-2.3.3-.7.6-1.4.9-1.9.3-.6.4-.9.4-1.2 0-.5-.2-.8-.7-.8-.2 0-.6.2-1 .6-.4.4-.9 1-1.4 1.6-.5.7-1 1.5-1.6 2.4-.5.9-1 1.8-1.4 2.8-.4 1-.8 1.9-1 2.9-.3 1-.4 1.9-.4 2.8 0 .6.1 1.2.2 1.6.2.4.4.7.6 1 .2.3.5.4.8.5.3.4.6.5.9.5.5 0 1.1-.1 1.5-.3.5-.2.9-.5 1.3-.9s.7-.7 1-1.2c.3-.4.6-.8.8-1.2.1-.3.1-.7.2-1l.3-.9c.1-.3.2-.5.3-.8 0 .3-.1.6-.1.9 0 .3-.1.7-.1.9 0 .4 0 .8.1 1.3 0 .5.2 1 .3 1.5.2.5.5.9.8 1.3.4.3.9.5 1.5.5 1 0 2-.3 2.9-1 .9-.7 1.7-1.5 2.5-2.5.7-1 1.4-2.2 2-3.4.6-1.2 1.1-2.4 1.5-3.6.4-1.1.7-2.1.9-3zm6-7c-.2.4-.3.7-.5 1.1-.1.4-.2.8-.2 1.1v.9c.1.2.2.3.3.3.2 0 .4-.1.7-.3.3-.2.6-.5.9-.9.3-.4.6-.7.9-1.1.3-.4.4-.8.5-1.1.1-.4 0-.6-.2-.9-.2-.2-.5-.3-1.1-.3-.3 0-.5.1-.8.3-.1.3-.3.5-.5.9zm37.2 7c.2-.9.3-1.6.3-2 0-.2 0-.4-.1-.6-.1-.2-.2-.3-.4-.3-.3 0-.6.2-1 .7-.4.5-.8 1.1-1.2 1.8-.4.7-.8 1.5-1.3 2.3-.4.8-.9 1.6-1.3 2.3-.4.7-.9 1.3-1.3 1.8s-.8.7-1.1.7c-.3 0-.6-.1-.7-.4-.1-.3-.2-.6-.2-.9 0-.6.1-1.2.2-1.8.1-.6.2-1 .3-1.5.1-.4.2-.8.3-1.1.1-.3.2-.5.2-.7 0-.6-.3-.9-.9-.9-.3 0-.6.2-.9.5-.3.4-.7.8-1 1.3-.4.5-.7 1.1-1.1 1.7-.4.6-.7 1.2-1.1 1.7-.4.5-.7 1-1.1 1.3-.4.4-.7.5-1.1.5-.4 0-.6-.1-.7-.4v-.6c0-.7.1-1.4.4-2.2.3-.8.5-1.5.9-2.3.3-.7.6-1.4.9-1.9.3-.6.4-.9.4-1.2 0-.5-.2-.8-.7-.8-.2 0-.6.2-1 .6-.4.4-.9 1-1.4 1.6-.5.7-1 1.5-1.6 2.4-.2.3-.4.6-.5 1-.5.8-1.1 1.6-1.7 2.2-.6.7-1.1 1.2-1.6 1.7-.5.4-1 .8-1.4 1-.4.2-.8.3-1.1.3-.4 0-.6-.2-.5-.5 0-.4.1-.8.4-1.4.2-.6.5-1.2.9-1.9s.8-1.4 1.1-2c.4-.7.7-1.3 1-1.9.3-.6.4-1 .5-1.4.1-.6-.1-1.1-.6-1.5-.4-.4-.9-.6-1.5-.6-.8 0-1.6.2-2.3.5-.8.3-1.5.7-2.1 1.2-.7.5-1.3 1-1.8 1.6-.5.6-1 1.1-1.4 1.6-.4.5-.8 1.1-1.2 1.7l.6-1.8c.2-.6.5-1.1.7-1.6.2-.5.4-.9.5-1.2.1-.3.2-.5.2-.7 0-.6-.3-.9-.9-.9-.2 0-.6.2-1 .6-.4.4-.9 1-1.4 1.7-.5.7-1 1.5-1.5 2.4-.4.6-.7 1.3-1 2-.7 1.2-1.2 2.1-1.6 2.8-.6.9-1.2 1.4-1.8 1.4-.3 0-.6-.1-.8-.3-.2-.2-.4-.6-.4-1.2 0-.4.1-.9.2-1.5s.3-1.1.4-1.7l.6-1.8c.2-.6.4-1.1.6-1.6.2-.5.3-.9.4-1.2.1-.3.2-.5.2-.7 0-.6-.3-.9-.9-.9-.2 0-.5.2-.9.6-.4.4-.8.9-1.2 1.6-.4.7-.9 1.4-1.3 2.3-.4.9-.8 1.7-1.1 2.6-.3.9-.6 1.7-.8 2.6-.2.8-.3 1.6-.3 2.2 0 .4 0 .9.1 1.4.1.5.2 1 .4 1.5s.5.9.9 1.2c.4.3.8.5 1.4.5.6 0 1.2-.2 1.8-.5.5-.4 1.1-.8 1.5-1.4.3-.4.7-.9 1-1.4.1.9.3 1.6.7 2.1.5.6 1.2 1 2 1 .4 0 .8-.1 1.1-.2.3-.1.5-.2.7-.4.2-.1.2-.3.1-.6-.1-.2-.2-.4-.2-.6-.1-.3-.1-.6 0-1 .1-.8.2-1.6.5-2.5.3-.9.7-1.7 1.1-2.5.4-.8.9-1.6 1.4-2.3.5-.7 1-1.4 1.5-1.9.5-.6.9-1 1.4-1.3.4-.3.8-.5 1-.5.2 0 .3.1.2.4-.1.3-.3.7-.6 1.2s-.6 1.1-1 1.8-.8 1.4-1.1 2.1c-.4.8-.7 1.5-1 2.3-.3.8-.5 1.5-.5 2.3v1.3c.1.5.2.9.4 1.3s.5.7.9 1c.4.3.8.4 1.4.4.6 0 1.3-.2 1.9-.5.6-.4 1.3-.8 1.9-1.4.6-.6 1.2-1.3 1.8-2 .4-.5.7-1 1.1-1.5-.1.7-.2 1.3-.2 1.9 0 .6.1 1.2.2 1.6.2.4.4.7.6 1 .2.3.5.4.8.5.3.1.6.2.9.2.5 0 1.1-.1 1.5-.3.5-.2.9-.5 1.3-.9s.7-.7 1-1.2c.3-.4.6-.8.8-1.2.1-.3.1-.7.2-1l.3-.9c.1-.3.2-.5.3-.8 0 .3-.1.6-.1.9 0 .3-.1.7-.1.9 0 .4 0 .8.1 1.3 0 .5.2 1 .3 1.5.2.5.5.9.8 1.3.4.3.9.5 1.5.5 1 0 2-.3 2.9-1 .9-.7 1.7-1.5 2.5-2.5.7-1 1.4-2.2 2-3.4.6-1.2 1.1-2.4 1.5-3.6.1-1.1.4-2.1.7-3zM17.5 76C16 76 15 77.1 15 78.5s1.1 2.5 2.5 2.5c1.5 0 2.5-1.1 2.5-2.5S19 76 17.5 76zm1.4 2.5c0 .8-.6 1.5-1.4 1.5-.8 0-1.4-.7-1.4-1.5s.6-1.5 1.4-1.5c.8 0 1.4.7 1.4 1.5zm7.5-2.5c-.3 0-.5.2-.5.5v2.3c0 .8-.4 1.2-1 1.2s-1-.4-1-1.2v-2.2c0-.3-.2-.5-.5-.5s-.5.2-.5.5v2.3c0 1.4.8 2.1 2.1 2.1s2.1-.7 2.1-2.2v-2.2c-.2-.3-.4-.6-.7-.6zm6.7.1H30c-.3 0-.5.2-.5.5s.2.5.5.5h1v3.4c0 .3.2.5.5.5s.5-.2.5-.5v-3.4h1c.3 0 .5-.2.5-.5.1-.3-.2-.5-.4-.5zm5 0h-1.3c-.3 0-.5.2-.5.5v3.8c0 .3.2.5.5.5h1.3c1.5 0 2.5-1.1 2.5-2.4 0-1.4-1-2.4-2.5-2.4zm1.4 2.4c0 .9-.6 1.4-1.4 1.4h-.8V77h.8c.8 0 1.4.6 1.4 1.5zm6.3-2.5c-1.5 0-2.5 1.1-2.5 2.5s1.1 2.5 2.5 2.5c1.5 0 2.5-1.1 2.5-2.5S47.2 76 45.8 76zm1.4 2.5c0 .8-.6 1.5-1.4 1.5-.8 0-1.4-.7-1.4-1.5S45 77 45.8 77c.8 0 1.4.7 1.4 1.5zm6.2-2.5c-1.5 0-2.5 1.1-2.5 2.5S52 81 53.4 81c1.5 0 2.5-1.1 2.5-2.5.1-1.4-1-2.5-2.5-2.5zm1.5 2.5c0 .8-.6 1.5-1.4 1.5-.8 0-1.4-.7-1.4-1.5s.6-1.5 1.4-1.5c.8 0 1.4.7 1.4 1.5zm6.1-2.4h-1.7c-.3 0-.5.2-.5.5v3.8c0 .3.2.5.5.5s.5-.2.5-.5v-1.1h.8l1 1.3c.1.2.3.3.5.3.3 0 .5-.2.5-.5 0-.2-.1-.3-.2-.4l-.7-.9c.6-.2 1-.7 1-1.5 0-.5-.1-.8-.4-1.1-.3-.2-.7-.4-1.3-.4zm.7 1.6c0 .4-.3.7-.8.7h-1.1V77h1c.6 0 .9.3.9.7zm11.5 1.8c-.1 0-.2 0-.3.1-.3.2-.6.4-1 .4-.8 0-1.4-.7-1.4-1.5s.6-1.5 1.4-1.5c.4 0 .7.1 1 .3.1 0 .2.1.3.1.3 0 .5-.2.5-.5 0-.2-.1-.3-.2-.4-.5-.3-1-.5-1.7-.5-1.5 0-2.5 1.1-2.5 2.5s1 2.5 2.4 2.5c.8 0 1.3-.2 1.7-.6.1-.1.2-.2.2-.4.1-.3-.2-.5-.4-.5zm6.5.5h-2.2v-1h1.8c.3 0 .5-.2.5-.5s-.2-.5-.5-.5h-1.8v-1h2.1c.3 0 .5-.2.5-.5s-.2-.5-.5-.5H77c-.3 0-.5.2-.5.5v3.8c0 .3.2.5.5.5h2.7c.3 0 .5-.2.5-.5-.1-.1-.3-.3-.5-.3zm6.9-4c-.3 0-.5.2-.5.5V79l-2-2.7c-.1-.2-.3-.3-.5-.3h-.1c-.3 0-.5.2-.5.5v3.8c0 .3.2.5.5.5s.5-.2.5-.5v-2.6l2.1 2.8c.1.2.3.3.5.3.3 0 .5-.2.5-.5v-3.8c.1-.2-.2-.5-.5-.5zm6.8.1h-3.1c-.3 0-.5.2-.5.5s.2.5.5.5h1v3.4c0 .3.2.5.5.5s.5-.2.5-.5v-3.4h1c.3 0 .5-.2.5-.5s-.2-.5-.4-.5zm5.3 0H97c-.3 0-.5.2-.5.5v3.8c0 .3.2.5.5.5s.5-.2.5-.5v-1.1h.8l1 1.3c.1.2.3.3.5.3.3 0 .5-.2.5-.5 0-.2-.1-.3-.2-.4l-.7-.9c.6-.2 1-.7 1-1.5 0-.5-.1-.8-.4-1.1-.2-.2-.7-.4-1.3-.4zm.7 1.6c0 .4-.3.7-.8.7h-1.1V77h1c.6 0 .9.3.9.7zm7.1 2.3h-2.2v-1h1.8c.3 0 .5-.2.5-.5s-.2-.5-.5-.5h-1.8v-1h2.1c.3 0 .5-.2.5-.5s-.2-.5-.5-.5h-2.6c-.3 0-.5.2-.5.5v3.8c0 .3.2.5.5.5h2.7c.3 0 .5-.2.5-.5 0-.1-.2-.3-.5-.3z"/></svg>